<svg version="1.1" id="Layer_1" xmlns="http://www.w3.org/2000/svg" xmlns:xlink="http://www.w3.org/1999/xlink" x="0px" y="0px"
	 width="100%" viewBox="0 0 510 337"  xml:space="preserve">
<path fill="none" opacity="1.000000" stroke="none" 
	d="
M344.000000,338.000000 
	C229.333344,338.000000 115.166695,338.000000 1.000031,338.000000 
	C1.000021,225.666687 1.000021,113.333389 1.000010,1.000061 
	C170.999954,1.000041 340.999908,1.000041 510.999878,1.000020 
	C510.999939,113.333275 510.999939,225.666550 510.999969,337.999908 
	C455.500000,338.000000 400.000000,338.000000 344.000000,338.000000 
M139.514999,303.722168 
	C153.859970,303.801971 168.204910,303.891998 182.549973,303.919891 
	C183.062027,303.920898 183.575272,303.308228 184.814392,302.987793 
	C190.865738,300.592560 193.864258,296.132904 193.983871,289.136841 
	C194.061554,284.593414 193.998505,280.047638 193.998505,274.427307 
	C209.340332,281.991699 224.014145,287.283783 239.996490,288.612701 
	C252.732635,289.671722 265.210663,288.738464 277.343292,285.156067 
	C286.144348,282.557404 294.580841,278.727081 303.188446,275.468597 
	C305.661072,274.532562 307.034302,275.237549 307.005707,278.087799 
	C306.962250,282.419586 306.987396,286.752167 307.003815,291.084381 
	C307.029358,297.829956 309.255798,300.782227 316.426361,303.713074 
	C330.074066,303.795837 343.721771,303.889343 357.369598,303.920929 
	C357.898682,303.922150 358.429108,303.329193 359.704224,302.910553 
	C364.099335,299.975037 361.859406,296.827362 359.596191,294.224335 
	C356.328613,290.466156 352.481201,287.215851 349.146179,283.510315 
	C348.077637,282.323059 346.872467,279.493896 347.390411,278.923309 
	C351.453217,274.447235 355.263275,268.288971 360.428070,266.634033 
	C366.872528,264.569061 374.754608,265.241852 381.620453,266.654785 
	C391.671143,268.723083 397.770630,267.018005 401.569611,257.434265 
	C403.137421,253.479050 402.677795,248.690079 402.977295,244.269302 
	C403.423431,237.684189 400.155975,233.236206 394.538239,230.268219 
	C393.133698,229.526184 391.678925,228.879349 389.953400,228.047043 
	C396.476166,216.825638 397.997284,206.026611 387.860107,195.274689 
	C400.827271,194.412857 402.149963,184.911270 403.436188,175.553802 
	C409.540405,176.245316 412.821075,173.829117 412.868134,167.661667 
	C412.930756,159.446960 412.880127,151.122894 411.635315,143.037155 
	C410.382874,134.901703 407.413422,127.044258 405.603271,118.973717 
	C404.960266,116.106720 405.338043,112.958420 405.561340,109.961746 
	C405.897308,105.452927 407.730255,100.684128 406.775299,96.519165 
	C403.710022,83.150124 394.586639,76.154594 380.511444,74.267464 
	C371.384399,74.193329 362.257355,74.119186 352.395172,73.947899 
	C338.438293,66.887802 324.520935,59.748249 310.514191,52.788506 
	C294.428925,44.795979 278.054199,37.357491 262.210144,28.918146 
	C252.056870,23.509983 242.730606,23.984449 232.854904,29.002953 
	C212.231949,39.482841 191.493835,49.736080 170.802368,60.081131 
	C151.282990,69.840179 131.756760,79.585548 112.247063,89.363914 
	C107.169174,91.908981 104.861015,95.804420 104.830383,101.767990 
	C104.802261,107.243805 108.551903,108.346695 112.065674,110.004265 
	C126.788559,116.949554 141.597748,123.713852 156.258377,130.786819 
	C158.176682,131.712296 160.677032,133.991272 160.746338,135.729523 
	C160.996140,141.996185 160.219055,148.296875 160.044479,154.590683 
	C159.972092,157.199799 159.043518,158.151672 156.435760,157.929657 
	C151.563385,157.514862 146.677872,157.164032 141.791077,157.026917 
	C129.399124,156.679230 119.400459,162.240585 110.411400,170.099014 
	C93.302971,185.055664 91.542099,205.015472 94.539558,225.259216 
	C97.660477,246.336777 110.905289,260.512390 131.721191,265.433899 
	C141.414352,267.725739 148.111725,271.971436 152.670609,280.329956 
	C147.973663,285.532654 143.275223,290.678253 138.648544,295.887634 
	C136.480148,298.329102 135.861252,300.811554 139.514999,303.722168 
z"/>
<path fill="#03030B" opacity="1.000000" stroke="none" 
	d="
M380.962860,74.989517 
	C394.586639,76.154594 403.710022,83.150124 406.775299,96.519165 
	C407.730255,100.684128 405.897308,105.452927 405.561340,109.961746 
	C405.338043,112.958420 404.960266,116.106720 405.603271,118.973717 
	C407.413422,127.044258 410.382874,134.901703 411.635315,143.037155 
	C412.880127,151.122894 412.930756,159.446960 412.868134,167.661667 
	C412.821075,173.829117 409.540405,176.245316 403.436188,175.553802 
	C402.149963,184.911270 400.827271,194.412857 387.860107,195.274689 
	C397.997284,206.026611 396.476166,216.825638 389.953400,228.047043 
	C391.678925,228.879349 393.133698,229.526184 394.538239,230.268219 
	C400.155975,233.236206 403.423431,237.684189 402.977295,244.269302 
	C402.677795,248.690079 403.137421,253.479050 401.569611,257.434265 
	C397.770630,267.018005 391.671143,268.723083 381.620453,266.654785 
	C374.754608,265.241852 366.872528,264.569061 360.428070,266.634033 
	C355.263275,268.288971 351.453217,274.447235 347.390411,278.923309 
	C346.872467,279.493896 348.077637,282.323059 349.146179,283.510315 
	C352.481201,287.215851 356.328613,290.466156 359.596191,294.224335 
	C361.859406,296.827362 364.099335,299.975037 358.866394,302.954163 
	C344.002075,302.994629 329.975586,302.991547 315.949066,302.988464 
	C309.255798,300.782227 307.029358,297.829956 307.003815,291.084381 
	C306.987396,286.752167 306.962250,282.419586 307.005707,278.087799 
	C307.034302,275.237549 305.661072,274.532562 303.188446,275.468597 
	C294.580841,278.727081 286.144348,282.557404 277.343292,285.156067 
	C265.210663,288.738464 252.732635,289.671722 239.996490,288.612701 
	C224.014145,287.283783 209.340332,281.991699 193.998505,274.427307 
	C193.998505,280.047638 194.061554,284.593414 193.983871,289.136841 
	C193.864258,296.132904 190.865738,300.592560 183.975021,302.974609 
	C168.440399,302.978851 153.745148,302.996246 139.049896,303.013641 
	C135.861252,300.811554 136.480148,298.329102 138.648544,295.887634 
	C143.275223,290.678253 147.973663,285.532654 152.670609,280.329956 
	C148.111725,271.971436 141.414352,267.725739 131.721191,265.433899 
	C110.905289,260.512390 97.660477,246.336777 94.539558,225.259216 
	C91.542099,205.015472 93.302971,185.055664 110.411400,170.099014 
	C119.400459,162.240585 129.399124,156.679230 141.791077,157.026917 
	C146.677872,157.164032 151.563385,157.514862 156.435760,157.929657 
	C159.043518,158.151672 159.972092,157.199799 160.044479,154.590683 
	C160.219055,148.296875 160.996140,141.996185 160.746338,135.729523 
	C160.677032,133.991272 158.176682,131.712296 156.258377,130.786819 
	C141.597748,123.713852 126.788559,116.949554 112.065674,110.004265 
	C108.551903,108.346695 104.802261,107.243805 104.830383,101.767990 
	C104.861015,95.804420 107.169174,91.908981 112.247063,89.363914 
	C131.756760,79.585548 151.282990,69.840179 170.802368,60.081131 
	C191.493835,49.736080 212.231949,39.482841 232.854904,29.002953 
	C242.730606,23.984449 252.056870,23.509983 262.210144,28.918146 
	C278.054199,37.357491 294.428925,44.795979 310.514191,52.788506 
	C324.520935,59.748249 338.438293,66.887802 353.034241,74.295746 
	C362.769806,74.758896 371.866333,74.874207 380.962860,74.989517 
M318.097809,112.280968 
	C318.182953,112.329262 318.268097,112.377556 318.353241,112.425850 
	C318.237946,112.281967 318.122620,112.138084 317.791748,111.558205 
	C317.598145,111.283775 317.342896,111.090973 316.805054,110.545685 
	C316.604309,110.276985 316.345551,110.087563 315.937439,109.291077 
	C310.304626,104.851120 304.671844,100.411163 298.620911,95.445381 
	C290.072906,91.297501 281.524933,87.149612 273.488556,82.440483 
	C276.967316,83.110039 280.450134,83.759560 283.923492,84.456070 
	C286.308502,84.934341 288.680450,85.477913 291.058228,85.992287 
	C291.190735,85.388107 291.323212,84.783928 291.455719,84.179741 
	C284.122742,82.557266 276.829498,80.709160 269.440094,79.406929 
	C265.712158,78.749947 261.809937,79.082024 257.186829,78.857903 
	C250.433792,77.066917 249.986282,77.385635 249.973709,84.022385 
	C249.968704,86.663895 249.976273,89.305420 249.525177,91.605042 
	C246.491730,90.035484 247.063614,87.188477 247.031754,84.557823 
	C247.019638,83.558243 246.953201,82.552437 247.036057,81.559875 
	C247.283249,78.599113 245.872253,77.655983 243.115631,78.160393 
	C221.492935,82.116920 201.761108,90.113403 185.383896,105.233505 
	C184.856934,105.720009 184.772278,106.685631 184.309082,107.867821 
	C190.212997,104.926247 195.513748,102.285194 200.814514,99.644142 
	C201.099808,100.128838 201.385117,100.613525 201.670425,101.098221 
	C191.742676,107.257393 182.390198,114.005424 176.746063,124.677986 
	C184.525818,117.460419 192.408737,110.566826 203.357086,108.570549 
	C190.871063,116.781136 179.042740,125.545990 173.199432,140.108292 
	C188.868149,126.982910 207.345169,122.001923 227.607681,119.734779 
	C226.053284,121.749611 225.055130,123.043442 223.341507,124.667412 
	C215.932495,126.473236 208.523499,128.279053 200.489304,130.179810 
	C193.687454,133.520370 186.885605,136.860931 180.083740,140.201492 
	C180.276093,140.929916 180.468445,141.658325 180.660797,142.386749 
	C226.250244,124.183563 271.819122,124.446640 317.472137,141.881042 
	C313.321472,138.618790 309.151123,135.910492 304.759979,133.626785 
	C302.832153,132.624176 300.454193,132.487061 297.977142,131.285278 
	C289.652618,128.906326 281.328125,126.527382 272.952820,123.456909 
	C271.982117,122.439056 271.011414,121.421204 269.769928,120.119408 
	C270.823914,120.068222 271.604584,119.936829 272.366669,120.007172 
	C286.254852,121.288971 299.383148,125.121124 311.513855,132.052383 
	C315.789612,134.495468 319.826233,137.357086 323.990814,140.501465 
	C324.118988,140.768433 324.247162,141.035400 324.375305,141.302383 
	C324.258087,140.862640 324.140839,140.422913 323.946167,139.268860 
	C320.432922,130.988525 314.734161,124.441536 307.794861,118.871452 
	C304.967041,116.601585 302.166382,114.297844 299.353333,112.009514 
	C308.558044,112.863251 313.905029,119.544754 320.607635,124.379440 
	C316.573853,118.661133 311.852661,113.769035 306.986633,109.025490 
	C304.447815,106.550522 301.654022,104.337112 299.734772,102.017670 
	C305.148865,104.688286 310.562988,107.358910 316.199707,110.462555 
	C316.398529,110.734993 316.658417,110.923004 317.204163,111.458786 
	C317.406158,111.729866 317.669373,111.912918 318.097809,112.280968 
M174.569977,128.733643 
	C174.926727,128.054962 175.283478,127.376282 175.640213,126.697609 
	C175.328522,126.579277 175.016830,126.460945 174.705139,126.342613 
	C174.466599,127.225662 174.228073,128.108719 173.702698,129.095352 
	C173.804337,129.066818 173.905975,129.038284 174.569977,128.733643 
M323.102234,129.282608 
	C323.189819,129.330826 323.277435,129.379044 323.365021,129.427261 
	C323.244568,129.283920 323.124115,129.140564 323.012482,128.343201 
	C322.695862,127.681885 322.379272,127.020576 322.062653,126.359261 
	C321.768158,126.545250 321.473633,126.731247 321.179138,126.917244 
	C321.785248,127.612587 322.391388,128.307922 323.102234,129.282608 
M389.827820,114.306526 
	C395.762848,111.827766 397.153320,109.188835 395.974030,101.952591 
	C396.377777,93.765770 393.770050,88.607246 386.013275,86.378967 
	C380.638947,84.835114 374.633667,85.487755 368.224976,85.002800 
	C367.337921,85.079079 366.450836,85.155365 364.834564,85.294350 
	C368.283295,86.822868 371.048340,88.048355 373.813385,89.320168 
	C373.813385,89.320168 373.796387,89.363441 373.868774,90.033653 
	C375.988464,93.607368 378.108154,97.181084 379.988678,101.546036 
	C379.878204,105.271225 377.549103,109.521965 382.606384,112.388840 
	C382.886505,112.604523 383.166626,112.820198 384.066345,113.624252 
	C385.738556,113.830719 387.410736,114.037186 389.827820,114.306526 
M195.952347,196.391785 
	C195.866730,195.648682 195.781128,194.905563 195.861649,193.218155 
	C195.861649,186.994934 195.861649,180.771713 195.861649,174.665558 
	C189.904358,174.665558 184.702209,174.665558 179.769241,174.665558 
	C179.769241,187.307053 179.769241,199.542801 179.469391,212.465302 
	C179.532852,212.954453 179.596313,213.443604 179.346100,214.827408 
	C179.392914,221.300537 179.202698,227.786194 179.543442,234.243805 
	C180.024353,243.357925 184.891296,249.768112 192.941376,253.721176 
	C201.824020,258.083069 210.865005,258.047119 219.853378,253.958801 
	C228.276611,250.127518 233.253403,243.581451 233.743698,234.328735 
	C234.137787,226.891663 233.686188,219.409775 233.763367,211.029663 
	C233.637360,205.569122 233.511337,200.108582 233.641830,193.790771 
	C233.641830,187.511856 233.641830,181.232956 233.641830,174.699127 
	C227.985916,174.699127 222.647888,174.699127 217.465683,174.699127 
	C217.465683,182.267807 217.465683,189.403030 217.187271,197.491989 
	C217.238159,200.645569 217.289062,203.799149 217.109909,207.870209 
	C217.080414,214.996414 217.251205,222.130753 216.962631,229.246460 
	C216.697311,235.789093 212.194992,240.036621 206.240433,239.959061 
	C200.410126,239.883087 196.106293,235.301880 195.887497,228.855759 
	C195.752853,224.888687 195.716293,220.918274 195.783569,216.030624 
	C195.766953,210.357346 195.750351,204.684067 195.931335,198.399307 
	C195.889984,197.979507 195.848633,197.559708 195.952347,196.391785 
M395.231873,145.472458 
	C396.622345,150.442917 395.589722,156.438904 401.467834,160.389633 
	C401.223328,158.350449 401.073395,157.100037 401.011353,154.937469 
	C402.036255,142.788803 398.524963,131.428314 394.811371,120.131721 
	C394.528870,119.272369 392.932861,118.844833 391.065857,118.194305 
	C388.720856,118.179817 386.375854,118.165329 383.287781,117.820534 
	C382.322296,119.304146 380.879791,120.668396 380.473541,122.291954 
	C378.680054,129.459183 376.957489,136.660858 375.672150,143.931900 
	C374.968658,147.911682 375.186554,152.054306 375.066254,156.808273 
	C374.912994,157.809525 374.759735,158.810776 374.606506,159.812027 
	C379.604370,153.896591 381.120850,146.927841 381.685944,138.835770 
	C382.462952,135.560745 383.239960,132.285721 384.545166,128.958298 
	C384.864319,129.110092 385.183502,129.261887 385.468689,130.295258 
	C385.457794,135.928253 385.318390,141.566406 385.544281,147.189911 
	C385.589539,148.316345 387.026459,149.386902 387.821686,150.483215 
	C388.840057,149.427826 390.263672,148.533249 390.764069,147.272324 
	C391.275574,145.983292 390.883362,144.334930 390.883606,142.843872 
	C390.884491,137.752380 390.883972,132.660904 390.883972,127.569412 
	C391.234161,127.545685 391.584351,127.521957 391.934540,127.498230 
	C392.681061,129.980469 393.427582,132.462723 394.030457,135.783615 
	C394.500885,138.742645 394.971283,141.701660 395.231873,145.472458 
M166.249176,190.285217 
	C168.525177,188.041458 170.951279,185.922791 172.987595,183.479279 
	C173.615341,182.725998 173.179626,181.086487 172.956024,179.228546 
	C171.958878,178.353333 170.995850,177.435318 169.959579,176.609207 
	C147.299164,158.544113 112.679810,170.069168 106.021545,198.382080 
	C105.544975,202.242813 105.068405,206.103561 104.288742,210.821030 
	C104.249512,224.686569 106.905930,237.492584 118.557854,247.004730 
	C118.557854,247.004730 118.771790,247.091492 119.112465,247.686676 
	C129.981903,256.315704 142.103149,258.030090 155.396362,254.811218 
	C158.223907,254.126556 161.496948,255.461502 164.575043,255.567841 
	C166.586914,255.637360 168.617355,255.169495 170.805786,254.026749 
	C170.802887,247.015747 170.799988,240.004761 170.972443,232.071793 
	C170.901642,224.002548 170.830841,215.933289 170.855392,206.990112 
	C169.943893,206.258759 169.044006,204.909882 168.119110,204.892517 
	C159.834259,204.737000 151.543610,204.749313 143.259033,204.921753 
	C142.363266,204.940399 141.495148,206.286255 140.309158,207.801910 
	C140.376572,209.209946 140.443985,210.617981 140.314285,212.751007 
	C140.379929,213.493118 140.445572,214.235214 140.293900,215.741821 
	C140.518570,217.527420 139.156494,220.409607 143.925888,219.851913 
	C147.153229,219.851913 150.380569,219.851913 153.996719,219.851913 
	C153.996719,224.956207 153.795273,229.384262 154.063843,233.783630 
	C154.259979,236.996567 153.234848,238.800888 149.491928,239.098267 
	C149.491928,239.098267 149.039185,239.309647 148.278488,239.263763 
	C147.796173,239.407715 147.313843,239.551666 146.475662,239.494980 
	C146.179260,239.524261 145.957840,239.668625 145.162598,239.797958 
	C144.283325,239.812622 143.404053,239.827286 142.011414,239.402908 
	C141.353836,239.337448 140.696243,239.271988 139.324707,238.958984 
	C133.154312,237.673523 128.970184,233.573807 124.944321,228.248184 
	C120.862976,221.730118 120.068466,214.545380 121.053490,207.151215 
	C123.735840,187.016052 143.642792,178.397629 160.075699,190.894791 
	C163.337036,195.035507 164.023300,195.034012 166.249176,190.285217 
M202.727127,87.905060 
	C207.221390,86.228401 211.715652,84.551750 216.209915,82.875092 
	C216.044724,82.420845 215.879532,81.966606 215.714340,81.512360 
	C211.154480,83.171021 206.594620,84.829681 201.251221,86.685471 
	C195.080475,89.487846 188.796066,92.072334 182.796112,95.202133 
	C180.464951,96.418152 178.776016,98.865364 176.231506,100.823593 
	C175.728439,100.987831 175.225372,101.152069 174.722305,101.316307 
	C174.792725,101.519531 174.863129,101.722748 174.933533,101.925972 
	C175.651581,101.654732 176.369614,101.383484 177.771652,100.972305 
	C185.840942,96.634209 193.910233,92.296104 202.727127,87.905060 
M355.623260,196.021194 
	C355.571075,193.138245 355.518890,190.255295 355.477875,186.861908 
	C355.513458,185.968933 355.549011,185.075974 356.585083,184.142960 
	C368.112427,184.142960 379.639740,184.142960 391.282471,184.142960 
	C391.282471,179.228302 391.282471,174.977753 391.456543,170.020859 
	C389.997650,169.433365 388.543976,168.353653 387.079010,168.338165 
	C377.459137,168.236420 367.836853,168.376785 358.215240,168.412903 
	C351.949066,168.436417 345.682770,168.417328 339.206329,168.417328 
	C339.206329,178.210831 339.206329,187.454758 338.966553,197.339462 
	C339.024780,197.558670 339.083008,197.777863 338.989960,198.901947 
	C339.058838,202.255997 339.127716,205.610031 338.943329,209.875870 
	C338.928345,224.918884 338.913361,239.961899 338.927002,255.605408 
	C339.283661,255.707825 339.640350,255.810242 340.819183,256.069183 
	C342.208954,256.019348 343.598694,255.969513 345.908081,256.126801 
	C359.929779,256.139069 373.951996,256.207550 387.972198,256.067688 
	C389.234039,256.055084 390.482513,254.696518 391.909302,253.055405 
	C391.861786,249.034592 391.814270,245.013779 391.861694,240.494141 
	C391.575775,240.377686 391.289886,240.261246 390.082642,239.957504 
	C378.830170,239.957504 367.577728,239.957504 356.171509,239.957504 
	C356.171509,232.993759 356.171509,226.615906 356.171509,219.656464 
	C365.206421,219.656464 373.944946,219.656464 383.057068,219.656464 
	C383.057068,214.300552 383.057068,209.518219 382.752747,204.322601 
	C382.427185,204.249527 382.101593,204.176453 381.127960,204.266251 
	C380.733490,204.442505 380.338989,204.618759 379.062866,204.472702 
	C371.335815,204.472702 363.608765,204.472702 355.938202,204.472702 
	C355.714691,202.019379 355.579437,200.534882 355.699707,198.375198 
	C355.618073,197.908142 355.536438,197.441101 355.623260,196.021194 
M222.855057,151.078598 
	C223.743576,149.933716 224.441727,148.073715 225.556061,147.777008 
	C229.001678,146.859650 229.063248,147.090927 228.369003,143.170807 
	C222.808151,143.170807 217.238647,143.170807 211.687317,143.170807 
	C211.387222,147.465225 211.387222,147.465225 217.940079,147.916214 
	C217.940079,150.327255 217.809143,152.781143 217.972137,155.215317 
	C218.192123,158.500671 218.638199,161.770889 219.613754,165.330307 
	C220.725098,164.438110 222.703262,163.624023 222.791977,162.639664 
	C223.110550,159.105194 222.790436,155.513168 222.855057,151.078598 
M321.508850,268.080841 
	C320.891449,268.505219 320.274048,268.929596 319.656647,269.354004 
	C319.822266,269.579071 319.987854,269.804169 320.153473,270.029236 
	C320.772125,269.678101 321.390778,269.326965 322.886383,269.058472 
	C325.224731,269.174072 327.563110,269.289673 329.734528,270.046997 
	C326.579865,271.538727 323.425201,273.030457 320.270508,274.522217 
	C320.367401,274.837158 320.464264,275.152130 320.561127,275.467072 
	C322.512482,275.467072 324.463867,275.467072 327.752716,275.467072 
	C324.632019,277.540100 322.603668,278.887543 319.808807,280.744110 
	C322.989807,280.975616 325.050964,281.125610 328.113617,281.348480 
	C324.390564,283.568634 321.512451,285.284943 317.517578,287.667175 
	C321.996155,287.368256 324.925934,287.172699 327.855713,286.977142 
	C327.897278,287.281555 327.938843,287.585999 327.980377,287.890442 
	C325.421631,289.147125 322.862854,290.403839 320.304077,291.660553 
	C320.445099,292.077972 320.586151,292.495422 320.727173,292.912872 
	C322.159058,292.611115 323.590973,292.309357 325.557983,292.654877 
	C331.434998,292.654877 337.312012,292.654877 342.740051,292.654877 
	C339.904694,288.648438 335.056671,284.733063 334.685333,280.431274 
	C334.328308,276.295349 338.605011,271.759430 341.207092,266.695862 
	C334.881104,267.168182 328.512207,267.643707 321.508850,268.080841 
M330.144196,236.810257 
	C331.025940,234.383270 331.907715,231.956268 332.789825,228.721237 
	C332.906036,221.804474 333.022278,214.887726 333.180817,207.281998 
	C332.834900,206.518707 332.488983,205.755417 332.049347,204.151230 
	C331.015167,191.614853 323.705750,183.335953 313.128479,177.958755 
	C299.321899,170.939865 284.407410,175.491425 270.018982,174.047409 
	C270.018982,187.833664 270.018982,200.804932 269.789398,214.634308 
	C269.852753,216.089462 269.916138,217.544617 269.761292,219.915771 
	C269.817871,231.614563 269.874481,243.313339 270.073303,255.775330 
	C281.793152,255.554138 293.610352,256.186707 305.204590,254.864258 
	C316.128143,253.618317 324.369080,247.019363 330.144196,236.810257 
M178.337250,269.450867 
	C178.738617,269.371094 179.139999,269.291321 179.541382,269.211548 
	C178.988663,268.837952 178.435959,268.464355 177.073395,267.946106 
	C170.714676,267.550507 164.355957,267.154907 158.450485,266.787476 
	C160.997482,271.750153 165.503021,276.510010 165.012817,280.683044 
	C164.503662,285.017303 159.162079,288.783905 155.991928,292.726440 
	C164.024628,292.726440 172.256378,292.726440 180.488129,292.726440 
	C180.489120,292.577759 180.490097,292.429047 180.491074,292.280365 
	C179.690216,292.110657 178.889359,291.940948 177.884430,291.108582 
	C175.601288,289.944489 173.318161,288.780396 170.266556,287.224487 
	C173.937424,287.043274 176.589340,286.912354 179.241272,286.781464 
	C179.271927,286.434692 179.302597,286.087921 179.333267,285.741150 
	C176.790146,284.466034 174.247025,283.190918 170.518372,281.321381 
	C174.345291,281.070618 176.791504,280.910339 180.489899,280.667999 
	C177.470078,278.817108 175.677795,277.718597 173.241699,276.225464 
	C176.212677,275.982330 178.209503,275.818878 180.206345,275.655457 
	C180.221252,275.374634 180.236160,275.093811 180.251068,274.812958 
	C176.533051,272.996521 172.815033,271.180054 169.977097,269.241150 
	C172.653885,269.167816 175.330673,269.094513 178.337250,269.450867 
M243.097870,213.740845 
	C243.153992,214.481094 243.210114,215.221329 243.079422,216.886902 
	C243.079422,229.817169 243.079422,242.747421 243.079422,255.780762 
	C248.939529,255.780762 254.308853,255.780762 259.788605,255.780762 
	C259.788605,235.645782 259.788605,215.877991 259.940552,195.157455 
	C259.940552,188.273621 259.940552,181.389786 259.940552,174.535400 
	C253.934113,174.535400 248.688461,174.535400 243.212982,174.535400 
	C243.212982,186.867813 243.212982,198.941849 243.034760,211.669754 
	C243.096649,212.115005 243.158554,212.560242 243.097870,213.740845 
M268.775146,165.191772 
	C272.260834,165.215546 275.754486,165.100830 279.229980,165.301300 
	C282.845581,165.509827 283.478638,163.989914 282.393127,160.990921 
	C271.761169,161.097580 271.761169,161.097580 271.364868,157.373993 
	C273.863190,155.838638 280.191315,159.548538 278.741333,152.143967 
	C276.327209,151.992081 274.242065,151.860886 272.021088,151.721130 
	C272.021088,150.432175 271.978088,149.457016 272.048889,148.490173 
	C272.068573,148.221512 272.425507,147.977570 272.630585,147.724564 
	C282.785248,147.241943 282.785248,147.241943 281.973389,143.293304 
	C277.051270,143.293304 272.165680,143.293304 267.224396,143.293304 
	C267.224396,150.440109 267.224396,157.220016 267.090210,164.554504 
	C267.401428,164.675995 267.712677,164.797485 268.775146,165.191772 
M137.740417,93.920898 
	C140.044052,92.985023 142.398651,92.156929 144.643021,91.095711 
	C158.752243,84.424332 172.878433,77.786469 186.917191,70.969055 
	C199.002991,65.100037 210.979889,59.006725 223.757950,52.996037 
	C229.480789,50.338268 235.355988,47.958733 240.878433,44.934986 
	C245.322693,42.501602 249.352600,42.730686 253.692291,44.797325 
	C264.350006,49.872719 275.073303,54.810463 285.729309,59.889423 
	C310.211121,71.558182 334.652863,83.311256 359.151062,94.945488 
	C363.361755,96.945152 367.770721,98.527351 372.088104,100.302399 
	C372.505981,99.625076 372.923859,98.947762 373.341766,98.270447 
	C371.588409,96.861679 370.001190,95.137260 368.047546,94.109032 
	C363.819153,91.883606 359.403076,90.014771 355.076477,87.279739 
	C354.021851,86.530502 353.045105,85.624985 351.901215,85.054794 
	C320.202576,69.253792 288.436066,53.587662 256.816467,37.630413 
	C250.383240,34.383812 244.772339,34.575958 238.413452,37.794785 
	C209.485214,52.438141 180.388245,66.747765 151.395233,81.263847 
	C141.815430,86.060219 132.365463,91.115860 122.229256,96.314079 
	C120.204102,97.400360 118.178940,98.486649 114.978127,100.203545 
	C117.991722,101.361816 120.059784,102.951805 121.157272,102.444031 
	C126.580315,99.934929 131.746597,96.870888 137.740417,93.920898 
M338.611694,157.587082 
	C342.714844,157.722885 346.822357,158.042282 350.919922,157.944458 
	C355.281769,157.840347 359.634155,157.341232 364.328644,156.247742 
	C364.552856,154.291626 364.733551,152.329376 365.008728,150.380447 
	C366.227753,141.746750 367.387695,133.103134 368.761719,124.493851 
	C369.185242,121.840210 370.219696,119.284073 371.244141,115.753906 
	C359.651367,121.279503 349.057434,126.221268 338.611877,131.458878 
	C337.447662,132.042633 336.468048,134.334976 336.526520,135.789780 
	C336.811157,142.873077 337.478088,149.941010 338.611694,157.587082 
M256.230194,163.496719 
	C256.230194,156.732925 256.230194,149.969116 256.230194,143.155853 
	C254.653351,143.155853 253.398468,143.155853 251.691620,143.155853 
	C251.691620,146.135895 251.691620,148.879059 251.691620,151.664001 
	C248.359955,151.664001 245.490646,151.664001 242.325287,151.664001 
	C242.325287,148.706345 242.325287,146.087997 242.325287,143.321991 
	C240.676147,143.321991 239.343430,143.321991 238.142319,143.321991 
	C238.142319,150.812485 238.142319,157.912476 238.142319,165.007736 
	C241.524475,164.956146 241.524475,164.956146 242.956604,156.912628 
	C245.652328,156.912628 248.393478,156.912628 251.134644,156.912628 
	C250.857422,157.275406 250.580185,157.638184 250.302963,158.000961 
	C252.072495,159.842361 253.842026,161.683777 256.230194,163.496719 
M268.514282,275.042419 
	C269.800751,274.703400 271.224121,274.600952 272.334808,273.958191 
	C273.425995,273.326721 274.199585,272.146484 275.112549,271.207031 
	C273.831207,271.047180 272.441528,270.480591 271.284882,270.788757 
	C254.935196,275.144592 238.765533,275.038452 222.723129,269.304596 
	C221.287384,268.791443 219.604263,268.970367 218.036026,268.827881 
	C217.989380,269.526886 217.942734,270.225922 217.896088,270.924927 
	C233.936844,277.835846 250.588257,278.744293 268.514282,275.042419 
M308.136261,157.135727 
	C309.438416,156.714844 310.740601,156.293945 312.879211,155.602707 
	C306.518585,152.608337 293.575317,153.352478 291.589050,157.135681 
	C297.106201,157.135681 302.157196,157.135681 308.136261,157.135727 
M203.711685,154.583313 
	C197.517624,154.278687 191.323563,153.974060 185.129501,153.669434 
	C185.031296,154.447250 184.933075,155.225052 184.834869,156.002869 
	C186.004974,156.374390 187.166656,157.031128 188.346695,157.065918 
	C192.498001,157.188324 196.660751,157.206360 200.807388,157.012558 
	C201.888214,156.962051 202.926392,155.998611 203.711685,154.583313 
M299.745941,87.997696 
	C299.095001,88.039894 298.444061,88.082085 296.886322,88.183060 
	C304.148376,92.091331 310.655823,95.593468 317.163239,99.095604 
	C317.492554,98.487282 317.821899,97.878960 318.151215,97.270645 
	C312.255951,94.201660 306.360687,91.132683 299.745941,87.997696 
M179.488922,111.591141 
	C179.488922,111.591141 179.422867,111.479599 179.488922,111.591141 
z"/>
<path fill="#51504F" opacity="1.000000" stroke="none" 
	d="
M139.282440,303.367920 
	C153.745148,302.996246 168.440399,302.978851 183.611801,302.971497 
	C183.575272,303.308228 183.062027,303.920898 182.549973,303.919891 
	C168.204910,303.891998 153.859970,303.801971 139.282440,303.367920 
z"/>
<path fill="#51504F" opacity="1.000000" stroke="none" 
	d="
M316.187714,303.350769 
	C329.975586,302.991547 344.002075,302.994629 358.493774,303.005432 
	C358.429108,303.329193 357.898682,303.922150 357.369598,303.920929 
	C343.721771,303.889343 330.074066,303.795837 316.187714,303.350769 
z"/>
<path fill="#51504F" opacity="1.000000" stroke="none" 
	d="
M380.737152,74.628494 
	C371.866333,74.874207 362.769806,74.758896 353.401794,74.344315 
	C362.257355,74.119186 371.384399,74.193329 380.737152,74.628494 
z"/>
<path fill="#0F2036" opacity="1.000000" stroke="none" 
	d="
M224.056976,124.337273 
	C225.055130,123.043442 226.053284,121.749611 227.607681,119.734779 
	C207.345169,122.001923 188.868149,126.982910 173.199432,140.108292 
	C179.042740,125.545990 190.871063,116.781136 203.357086,108.570549 
	C192.408737,110.566826 184.525818,117.460419 176.746063,124.677986 
	C182.390198,114.005424 191.742676,107.257393 201.670425,101.098221 
	C201.385117,100.613525 201.099808,100.128838 200.814514,99.644142 
	C195.513748,102.285194 190.212997,104.926247 184.309082,107.867821 
	C184.772278,106.685631 184.856934,105.720009 185.383896,105.233505 
	C201.761108,90.113403 221.492935,82.116920 243.115631,78.160393 
	C245.872253,77.655983 247.283249,78.599113 247.036057,81.559875 
	C246.953201,82.552437 247.019638,83.558243 247.031754,84.557823 
	C247.063614,87.188477 246.491730,90.035484 249.759506,92.249817 
	C249.662613,102.588051 249.331390,112.281517 248.592102,122.084091 
	C240.141678,122.907883 232.099335,123.622581 224.056976,124.337273 
z"/>
<path fill="#0F2036" opacity="1.000000" stroke="none" 
	d="
M249.000153,121.974983 
	C249.331390,112.281517 249.662613,102.588051 249.985977,92.420761 
	C249.976273,89.305420 249.968704,86.663895 249.973709,84.022385 
	C249.986282,77.385635 250.433792,77.066917 257.847687,79.194580 
	C263.331329,80.688087 268.154144,81.844910 272.976929,83.001724 
	C281.524933,87.149612 290.072906,91.297501 298.582581,95.980179 
	C296.829712,96.251305 295.086487,96.106766 293.405945,95.701958 
	C288.022888,94.405296 282.663055,93.012268 277.294281,91.656425 
	C277.199829,92.049683 277.105377,92.442940 277.010956,92.836197 
	C283.337402,95.557465 289.663879,98.278732 296.203796,101.257645 
	C297.281036,101.684792 298.144775,101.854294 299.005859,102.011032 
	C299.003204,101.998276 298.975372,102.005569 298.975372,102.005569 
	C301.654022,104.337112 304.447815,106.550522 306.986633,109.025490 
	C311.852661,113.769035 316.573853,118.661133 320.607635,124.379440 
	C313.905029,119.544754 308.558044,112.863251 299.353333,112.009514 
	C302.166382,114.297844 304.967041,116.601585 307.794861,118.871452 
	C314.734161,124.441536 320.432922,130.988525 323.971405,139.636200 
	C323.996643,140.003555 323.972046,140.027603 323.972046,140.027618 
	C319.826233,137.357086 315.789612,134.495468 311.513855,132.052383 
	C299.383148,125.121124 286.254852,121.288971 272.366669,120.007172 
	C271.604584,119.936829 270.823914,120.068222 269.769928,120.119408 
	C271.011414,121.421204 271.982117,122.439056 272.543182,123.884651 
	C264.422424,123.533257 256.711273,122.754120 249.000153,121.974983 
z"/>
<path fill="#D2A95F" opacity="1.000000" stroke="none" 
	d="
M195.635681,216.949371 
	C195.716293,220.918274 195.752853,224.888687 195.887497,228.855759 
	C196.106293,235.301880 200.410126,239.883087 206.240433,239.959061 
	C212.194992,240.036621 216.697311,235.789093 216.962631,229.246460 
	C217.251205,222.130753 217.080414,214.996414 217.541321,207.485199 
	C223.473114,213.557770 226.156311,214.389572 233.609833,211.947769 
	C233.686188,219.409775 234.137787,226.891663 233.743698,234.328735 
	C233.253403,243.581451 228.276611,250.127518 219.853378,253.958801 
	C210.865005,258.047119 201.824020,258.083069 192.941376,253.721176 
	C184.891296,249.768112 180.024353,243.357925 179.543442,234.243805 
	C179.202698,227.786194 179.392914,221.300537 179.797546,214.388199 
	C180.838379,213.973465 181.427795,213.997955 182.230179,214.091217 
	C182.726761,214.291428 182.934326,214.498917 183.094025,215.171692 
	C186.896500,219.600327 191.329697,217.701584 195.635681,216.949371 
M184.222763,242.668060 
	C190.039948,252.716827 203.074310,257.134430 215.612854,253.226761 
	C223.269897,250.840439 228.432373,245.776566 230.972595,238.182144 
	C231.303711,237.192139 230.712891,235.893753 230.549088,234.738190 
	C229.629822,235.402695 228.585312,235.952301 227.834274,236.771149 
	C227.312469,237.340057 227.257492,238.311020 226.885986,239.047928 
	C223.101166,246.555557 216.805557,250.362854 208.596176,250.894196 
	C200.261093,251.433685 192.946075,249.185074 187.726242,241.386505 
	C186.415985,238.908508 185.105713,236.430511 183.565155,233.516968 
	C180.974091,237.000824 182.553741,239.500656 184.222763,242.668060 
z"/>
<path fill="#DCAE5B" opacity="1.000000" stroke="none" 
	d="
M333.138489,207.970947 
	C333.022278,214.887726 332.906036,221.804474 332.421814,229.300339 
	C331.251068,229.971619 330.448273,230.063797 329.687317,229.820969 
	C326.935333,226.284393 326.707947,229.513046 325.971497,231.052399 
	C321.921021,239.518738 315.902313,246.628830 306.635895,248.245453 
	C296.814301,249.958923 286.597931,249.431564 276.549957,249.759903 
	C276.060852,249.775879 275.533142,248.610092 274.933411,247.670349 
	C273.975067,247.575058 273.106689,247.804031 272.148132,248.422272 
	C272.097961,249.873749 272.138000,250.935974 272.139740,252.279770 
	C272.385162,252.748688 272.668884,252.936035 273.007874,253.263428 
	C273.063141,253.403458 273.145447,253.693069 272.935608,253.997040 
	C271.794189,254.538055 270.862640,254.775085 269.931091,255.012115 
	C269.874481,243.313339 269.817871,231.614563 270.290771,219.469269 
	C275.862091,219.013229 280.903900,219.003693 286.044647,219.454147 
	C286.143555,226.508133 286.143555,233.102142 286.143555,239.597168 
	C302.575775,241.027557 311.548645,235.592117 315.558441,222.300980 
	C316.180206,220.240082 316.525085,218.095642 317.392883,215.992889 
	C318.840546,216.012238 319.893341,216.028519 321.000366,216.364441 
	C321.763824,217.007950 322.472992,217.331787 323.182129,217.655640 
	C323.156128,216.822708 323.130127,215.989761 323.140076,214.776093 
	C323.224091,213.632629 323.272095,212.869904 323.665039,212.075409 
	C327.052795,210.686050 330.095642,209.328506 333.138489,207.970947 
z"/>
<path fill="#DCAF5B" opacity="1.000000" stroke="none" 
	d="
M170.797089,232.993759 
	C170.799988,240.004761 170.802887,247.015747 170.402802,254.481583 
	C169.304001,254.569534 168.608185,254.202652 168.008530,253.395294 
	C168.104675,249.709595 168.104675,246.464340 168.104675,243.197739 
	C162.245346,245.302414 156.888336,247.226654 151.155396,249.109589 
	C149.865891,249.313614 148.952332,249.558929 147.702972,249.896545 
	C146.907089,249.948074 146.447006,249.907318 145.889709,249.723206 
	C145.530685,249.692139 145.268875,249.804413 144.674530,250.003693 
	C143.890121,250.037598 143.438248,249.984528 142.692169,249.660919 
	C140.167786,249.296112 137.937576,249.201813 135.336975,249.123596 
	C125.008011,246.170776 117.400574,240.543457 113.868912,230.017822 
	C116.776245,224.122070 116.423767,222.189514 112.009415,218.584839 
	C112.007080,216.784607 112.011353,215.400131 112.342842,214.157700 
	C114.483810,216.176102 116.411163,217.957169 118.084450,219.951401 
	C120.535690,222.872803 122.804970,225.946884 125.151802,228.955887 
	C128.970184,233.573807 133.154312,237.673523 139.931152,239.307037 
	C141.199982,239.717361 141.862381,239.779648 142.524780,239.841934 
	C143.404053,239.827286 144.283325,239.812622 145.666077,239.871674 
	C146.413361,239.923416 146.634018,239.840164 146.831528,239.695618 
	C147.313843,239.551666 147.796173,239.407715 148.765778,239.405304 
	C149.597809,239.658173 149.842209,239.532928 149.986237,239.171127 
	C153.234848,238.800888 154.259979,236.996567 154.063843,233.783630 
	C153.795273,229.384262 153.996719,224.956207 153.996719,219.851913 
	C150.380569,219.851913 147.153229,219.851913 143.469894,219.427460 
	C142.179672,217.661102 141.345444,216.319214 140.511215,214.977325 
	C140.445572,214.235214 140.379929,213.493118 140.685730,212.333466 
	C141.432297,211.529846 141.807434,211.143768 142.462555,210.977936 
	C149.350891,217.405670 161.195801,216.734680 169.895050,210.157211 
	C170.237244,218.098465 170.517166,225.546112 170.797089,232.993759 
z"/>
<path fill="#D5A959" opacity="1.000000" stroke="none" 
	d="
M391.766724,240.992966 
	C391.814270,245.013779 391.861786,249.034592 391.380676,253.476044 
	C390.269409,253.794601 389.686798,253.692551 389.257233,253.204926 
	C389.452515,251.492691 389.700836,250.132080 389.489014,248.847336 
	C389.166351,246.890717 388.525055,244.986633 388.019104,243.060242 
	C387.288177,244.950638 386.564178,246.843750 385.819214,248.728592 
	C385.705322,249.016830 385.494659,249.266861 385.119232,249.872681 
	C377.859100,249.872681 370.371460,250.285324 362.951324,249.754547 
	C355.786804,249.242035 348.027405,252.597488 341.190308,246.062820 
	C341.190308,248.998001 341.190308,251.067490 341.190308,253.347702 
	C342.463837,253.511093 343.746582,253.675659 345.024719,254.186844 
	C345.009583,254.995529 344.999023,255.457611 344.988464,255.919678 
	C343.598694,255.969513 342.208954,256.019348 340.278839,255.781250 
	C339.513367,255.236053 339.233337,255.073242 338.898376,255.004913 
	C338.913361,239.961899 338.928345,224.918884 339.415161,209.467422 
	C343.451447,212.451279 347.683929,213.277740 352.533051,213.130081 
	C359.244568,212.925720 365.976776,213.398987 372.464874,213.908264 
	C373.689972,219.890335 377.745880,215.848907 381.297302,217.258575 
	C380.851654,213.064285 380.495758,209.714325 380.057373,206.110291 
	C379.964783,205.502472 379.954651,205.148743 379.944519,204.795013 
	C380.338989,204.618759 380.733490,204.442505 381.642517,204.332611 
	C382.448395,204.534409 382.748383,204.646713 383.057068,204.735886 
	C383.057068,209.518219 383.057068,214.300552 383.057068,219.656464 
	C373.944946,219.656464 365.206421,219.656464 356.171509,219.656464 
	C356.171509,226.615906 356.171509,232.993759 356.171509,239.957504 
	C367.577728,239.957504 378.830170,239.957504 390.626251,240.229019 
	C391.313232,240.732040 391.512177,240.896179 391.766724,240.992966 
M343.989441,227.220810 
	C344.157471,228.625870 344.325531,230.030945 344.493561,231.436005 
	C344.805023,231.370911 345.116455,231.305817 345.427917,231.240738 
	C345.427917,226.725250 345.427917,222.209747 345.427917,217.694260 
	C344.948517,217.694443 344.469147,217.694611 343.989746,217.694778 
	C343.989746,220.568146 343.989746,223.441528 343.989441,227.220810 
z"/>
<path fill="#FBFAF8" opacity="1.000000" stroke="none" 
	d="
M323.320129,212.107193 
	C323.272095,212.869904 323.224091,213.632629 322.831451,214.739197 
	C322.280090,215.075165 322.073364,215.067261 321.843475,214.653961 
	C321.558594,212.799789 321.245850,211.358078 321.043243,209.901077 
	C319.579590,199.375565 315.004456,190.296265 304.553284,187.214142 
	C296.073578,184.713409 286.780548,184.970673 277.889801,184.009232 
	C277.197693,190.126587 277.691467,190.619370 281.995667,190.044724 
	C283.295502,189.871170 284.637726,190.015076 286.034302,190.260010 
	C286.056030,190.669876 286.003967,190.833282 285.576233,191.031006 
	C283.545959,191.705383 281.940674,192.588516 280.226807,192.935745 
	C276.449799,193.700928 276.673431,195.918259 277.703125,198.904205 
	C280.365997,198.249481 282.841919,197.640717 285.210022,197.299789 
	C285.085358,197.949799 285.068481,198.332001 284.692688,198.801849 
	C280.237946,201.014481 276.209351,202.704422 276.897095,208.923065 
	C277.592651,215.212952 276.071899,215.932953 270.018982,213.776184 
	C270.018982,200.804932 270.018982,187.833664 270.018982,174.047409 
	C284.407410,175.491425 299.321899,170.939865 313.128479,177.958755 
	C323.705750,183.335953 331.015167,191.614853 331.790222,204.774155 
	C326.914856,207.955673 325.375824,207.509079 323.894867,202.806122 
	C322.268890,199.620758 320.635925,196.808411 318.948578,193.859253 
	C318.807404,193.675507 318.720642,193.628601 318.633850,193.581696 
	C318.754669,193.722229 318.875488,193.862762 318.994781,194.380508 
	C320.214020,197.830826 321.434845,200.903915 322.720337,204.322327 
	C322.963409,207.147491 323.141754,209.627335 323.320129,212.107193 
z"/>
<path fill="#000000" opacity="1.000000" stroke="none" 
	d="
M338.009705,157.014389 
	C337.478088,149.941010 336.811157,142.873077 336.526520,135.789780 
	C336.468048,134.334976 337.447662,132.042633 338.611877,131.458878 
	C349.057434,126.221268 359.651367,121.279503 371.244141,115.753906 
	C370.219696,119.284073 369.185242,121.840210 368.761719,124.493851 
	C367.387695,133.103134 366.227753,141.746750 365.008728,150.380447 
	C364.733551,152.329376 364.552856,154.291626 363.692169,156.625153 
	C354.707031,157.006500 346.358368,157.010437 338.009705,157.014389 
z"/>
<path fill="#FAFAF6" opacity="1.000000" stroke="none" 
	d="
M106.439240,197.748367 
	C112.679810,170.069168 147.299164,158.544113 169.959579,176.609207 
	C170.995850,177.435318 171.958878,178.353333 172.842651,179.786789 
	C171.443680,181.282242 170.158096,182.219452 168.519135,183.138092 
	C166.633148,183.698776 165.100494,184.278030 163.209198,184.609772 
	C159.852982,183.394440 156.909485,182.186157 153.849030,181.498016 
	C134.444870,177.134979 118.915054,187.899918 116.059151,207.567520 
	C115.911339,208.585464 115.626114,209.583450 115.404861,210.590729 
	C115.052780,210.585281 114.700699,210.579819 114.348618,210.574371 
	C114.193199,207.622772 114.037781,204.671158 113.824066,200.612289 
	C112.454872,202.793686 111.720299,203.964005 110.691620,204.894073 
	C109.078087,202.351990 107.758667,200.050186 106.439240,197.748367 
z"/>
<path fill="#F3F2EE" opacity="1.000000" stroke="none" 
	d="
M339.206329,196.698669 
	C339.206329,187.454758 339.206329,178.210831 339.206329,168.417328 
	C345.682770,168.417328 351.949066,168.436417 358.215240,168.412903 
	C367.836853,168.376785 377.459137,168.236420 387.079010,168.338165 
	C388.543976,168.353653 389.997650,169.433365 391.013184,170.454865 
	C389.052094,171.326645 387.534363,171.764389 385.899353,172.589417 
	C385.650299,174.570145 385.518555,176.163589 385.397217,177.630798 
	C383.455994,178.138718 381.755219,178.583725 379.584351,178.980255 
	C369.547607,178.931824 359.979431,178.852859 350.416199,179.034348 
	C349.252411,179.056427 348.115234,180.479614 346.965729,181.253448 
	C348.256958,181.837921 349.511810,182.531189 350.848969,182.978271 
	C352.389557,183.493332 354.002838,183.790939 355.584564,184.182999 
	C355.549011,185.075974 355.513458,185.968933 355.624207,186.971497 
	C354.592804,186.509796 353.096039,185.178223 352.298340,185.512878 
	C350.093811,186.437729 346.574188,187.901840 346.425262,189.430496 
	C345.695190,196.923584 345.543671,198.152328 353.292175,196.339783 
	C353.828674,196.214294 354.477386,196.568466 354.980164,197.068665 
	C354.812622,197.937637 354.738831,198.437500 354.271606,198.960709 
	C348.953064,200.520737 344.201294,200.799026 339.826874,196.927307 
	C339.652954,196.781296 339.206329,196.698669 339.206329,196.698669 
z"/>
<path fill="#E0E3E6" opacity="1.000000" stroke="none" 
	d="
M122.856133,96.052963 
	C132.365463,91.115860 141.815430,86.060219 151.395233,81.263847 
	C180.388245,66.747765 209.485214,52.438141 238.413452,37.794785 
	C244.772339,34.575958 250.383240,34.383812 256.816467,37.630413 
	C288.436066,53.587662 320.202576,69.253792 351.901215,85.054794 
	C353.045105,85.624985 354.021851,86.530502 354.673737,87.698250 
	C352.715149,87.644821 351.064423,87.368851 349.618958,86.668938 
	C340.658661,82.330261 331.742523,77.900330 322.815369,73.493332 
	C300.637756,62.545048 278.455780,51.605610 256.291016,40.631348 
	C251.846085,38.430561 247.305115,36.788479 242.475159,39.082935 
	C235.901413,42.205757 229.443848,45.573143 222.581970,48.901821 
	C201.531464,59.196518 180.807526,69.369125 160.153763,79.682243 
	C152.339081,83.584373 144.686295,87.810791 136.575562,91.931122 
	C131.746307,93.332886 127.301216,94.692924 122.856133,96.052963 
z"/>
<path fill="#1A2A40" opacity="1.000000" stroke="none" 
	d="
M222.936478,48.835667 
	C229.443848,45.573143 235.901413,42.205757 242.475159,39.082935 
	C247.305115,36.788479 251.846085,38.430561 256.291016,40.631348 
	C278.455780,51.605610 300.637756,62.545048 322.815369,73.493332 
	C331.742523,77.900330 340.658661,82.330261 349.618958,86.668938 
	C351.064423,87.368851 352.715149,87.644821 354.667389,88.058426 
	C359.403076,90.014771 363.819153,91.883606 368.047546,94.109032 
	C370.001190,95.137260 371.588409,96.861679 373.341766,98.270447 
	C372.923859,98.947762 372.505981,99.625076 372.088104,100.302399 
	C367.770721,98.527351 363.361755,96.945152 359.151062,94.945488 
	C334.652863,83.311256 310.211121,71.558182 285.729309,59.889423 
	C275.073303,54.810463 264.350006,49.872719 253.692291,44.797325 
	C249.352600,42.730686 245.322693,42.501602 240.878433,44.934986 
	C235.355988,47.958733 229.480789,50.338268 223.377991,52.586243 
	C222.977509,51.062855 222.956985,49.949261 222.936478,48.835667 
z"/>
<path fill="#D9AA5B" opacity="1.000000" stroke="none" 
	d="
M259.788605,196.110199 
	C259.788605,215.877991 259.788605,235.645782 259.788605,255.780762 
	C254.308853,255.780762 248.939529,255.780762 243.079422,255.780762 
	C243.079422,242.747421 243.079422,229.817169 243.515106,216.477692 
	C246.738068,217.371353 249.410431,219.316162 252.337158,219.840149 
	C257.996216,220.853333 258.982117,219.702896 258.996490,213.882889 
	C259.010406,208.245132 258.959259,202.607193 259.017944,196.769211 
	C259.243408,196.287430 259.473206,196.134460 259.788605,196.110199 
M252.251038,249.881226 
	C251.193695,249.428558 250.093933,249.052780 249.091980,248.499741 
	C248.236420,248.027557 247.493210,247.351822 246.700287,246.766129 
	C246.194061,247.689590 245.389587,248.572495 245.257111,249.546799 
	C245.091263,250.766190 245.477509,252.060654 245.620804,253.282928 
	C249.783356,253.282928 253.615128,253.282928 258.192749,253.282928 
	C257.626373,250.772415 257.185852,248.819733 256.745331,246.867050 
	C255.497055,247.848892 254.248779,248.830734 252.251038,249.881226 
z"/>
<path fill="#FCFCFA" opacity="1.000000" stroke="none" 
	d="
M183.065872,214.782471 
	C182.934326,214.498917 182.726761,214.291428 182.124176,213.838959 
	C181.126556,212.938141 180.447891,212.358353 179.769241,211.778549 
	C179.769241,199.542801 179.769241,187.307053 179.769241,174.665558 
	C184.702209,174.665558 189.904358,174.665558 195.861649,174.665558 
	C195.861649,180.771713 195.861649,186.994934 195.412933,193.619720 
	C192.364395,193.051086 189.764557,192.080887 186.874557,191.002396 
	C187.014450,193.262222 187.148926,195.434601 187.272690,197.433945 
	C190.466049,197.267960 192.927002,197.140060 195.259491,197.262207 
	C195.068176,197.688797 195.005295,197.865341 194.607803,198.197662 
	C191.998123,199.209518 189.723022,200.065598 186.957413,201.106277 
	C186.957413,204.510406 186.823257,208.118225 186.998001,211.711029 
	C187.149612,214.827988 185.695938,215.449173 183.065872,214.782471 
z"/>
<path fill="#1D2B41" opacity="1.000000" stroke="none" 
	d="
M298.280640,131.956955 
	C300.454193,132.487061 302.832153,132.624176 304.759979,133.626785 
	C309.151123,135.910492 313.321472,138.618790 317.472137,141.881042 
	C271.819122,124.446640 226.250244,124.183563 180.660797,142.386749 
	C180.468445,141.658325 180.276093,140.929916 180.083740,140.201492 
	C186.885605,136.860931 193.687454,133.520370 200.853561,130.482117 
	C203.481552,130.647980 205.823029,130.840057 207.997269,130.325470 
	C237.670456,123.302597 267.128571,123.019722 296.336182,132.769760 
	C296.837952,132.937256 297.626129,132.246964 298.280640,131.956955 
z"/>
<path fill="#F8F8F6" opacity="1.000000" stroke="none" 
	d="
M259.864563,195.633820 
	C259.473206,196.134460 259.243408,196.287430 258.686829,196.895416 
	C255.755615,198.410538 253.236755,199.599319 250.184586,201.039825 
	C250.184586,203.434433 250.276413,206.223190 250.148819,209.001877 
	C250.076752,210.571335 249.643799,212.124207 249.373398,213.684555 
	C247.604797,213.103668 245.836197,212.522797 243.988098,211.733383 
	C243.764069,211.235764 243.532196,211.066101 243.212982,211.015869 
	C243.212982,198.941849 243.212982,186.867813 243.212982,174.535400 
	C248.688461,174.535400 253.934113,174.535400 259.940552,174.535400 
	C259.940552,181.389786 259.940552,188.273621 259.864563,195.633820 
M250.120987,191.139999 
	C250.706024,193.001770 251.291046,194.863525 251.876083,196.725296 
	C253.931427,196.068375 255.986771,195.411453 258.042114,194.754532 
	C257.938232,194.318680 257.834351,193.882828 257.730438,193.446960 
	C255.215790,192.436035 252.701111,191.425110 250.120987,191.139999 
z"/>
<path fill="#F2C76E" opacity="1.000000" stroke="none" 
	d="
M340.000793,197.073334 
	C344.201294,200.799026 348.953064,200.520737 354.463715,199.008728 
	C355.049316,199.033417 355.444214,199.050400 355.444214,199.050400 
	C355.579437,200.534882 355.714691,202.019379 355.938202,204.472702 
	C363.608765,204.472702 371.335815,204.472702 379.503662,204.633850 
	C379.954651,205.148743 379.964783,205.502472 379.851013,206.395386 
	C378.606232,208.795517 377.485321,210.656448 375.971375,213.169952 
	C375.510864,213.227966 374.105499,213.405014 372.700104,213.582092 
	C365.976776,213.398987 359.244568,212.925720 352.533051,213.130081 
	C347.683929,213.277740 343.451447,212.451279 339.541779,209.011536 
	C339.127716,205.610031 339.058838,202.255997 339.255737,198.345444 
	C339.732880,197.584991 339.892670,197.346451 340.000793,197.073334 
z"/>
<path fill="#EBC16E" opacity="1.000000" stroke="none" 
	d="
M110.985733,205.134323 
	C111.720299,203.964005 112.454872,202.793686 113.824066,200.612289 
	C114.037781,204.671158 114.193199,207.622772 114.348618,210.574371 
	C114.700699,210.579819 115.052780,210.585281 115.404861,210.590729 
	C115.626114,209.583450 115.911339,208.585464 116.059151,207.567520 
	C118.915054,187.899918 134.444870,177.134979 153.849030,181.498016 
	C156.909485,182.186157 159.852982,183.394440 163.046204,184.868103 
	C162.148285,186.988281 161.054688,188.602631 159.961105,190.216965 
	C143.642792,178.397629 123.735840,187.016052 121.053490,207.151215 
	C120.068466,214.545380 120.862976,221.730118 125.048065,228.602036 
	C122.804970,225.946884 120.535690,222.872803 118.084450,219.951401 
	C116.411163,217.957169 114.483810,216.176102 112.088013,213.949051 
	C108.458900,210.953644 111.197708,207.953293 110.985733,205.134323 
z"/>
<path fill="#1C2D46" opacity="1.000000" stroke="none" 
	d="
M222.581970,48.901821 
	C222.956985,49.949261 222.977509,51.062855 223.001465,52.594517 
	C210.979889,59.006725 199.002991,65.100037 186.917191,70.969055 
	C172.878433,77.786469 158.752243,84.424332 144.643021,91.095711 
	C142.398651,92.156929 140.044052,92.985023 137.370071,93.609406 
	C136.986389,92.828400 136.973053,92.358894 136.959717,91.889389 
	C144.686295,87.810791 152.339081,83.584373 160.153763,79.682243 
	C180.807526,69.369125 201.531464,59.196518 222.581970,48.901821 
z"/>
<path fill="#FBFBFA" opacity="1.000000" stroke="none" 
	d="
M217.465683,196.538254 
	C217.465683,189.403030 217.465683,182.267807 217.465683,174.699127 
	C222.647888,174.699127 227.985916,174.699127 233.641830,174.699127 
	C233.641830,181.232956 233.641830,187.511856 233.198792,194.338196 
	C230.502686,195.919022 228.249603,196.952438 225.995331,197.530762 
	C225.660690,192.425339 225.327240,187.774994 224.993790,183.124634 
	C224.674774,183.142807 224.355759,183.160995 224.036743,183.179169 
	C224.036743,188.146606 224.036743,193.114029 223.653412,198.126923 
	C221.335266,197.627655 219.400482,197.082947 217.465683,196.538254 
z"/>
<path fill="#489BE6" opacity="1.000000" stroke="none" 
	d="
M384.016968,129.010696 
	C383.239960,132.285721 382.462952,135.560745 381.296204,139.328796 
	C379.951782,141.250595 378.997101,142.679367 378.007019,143.696320 
	C379.991364,134.906601 382.011108,126.528717 384.030853,118.150841 
	C386.375854,118.165329 388.720856,118.179817 391.542511,118.578934 
	C393.588135,124.384682 395.157135,129.805801 396.534790,135.340393 
	C395.620361,135.284241 394.897247,135.114609 394.174133,134.944977 
	C393.427582,132.462723 392.681061,129.980469 391.934540,127.498230 
	C391.584351,127.521957 391.234161,127.545685 390.883972,127.569412 
	C390.883972,132.660904 390.884491,137.752380 390.883606,142.843872 
	C390.883362,144.334930 391.275574,145.983292 390.764069,147.272324 
	C390.263672,148.533249 388.840057,149.427826 387.821655,150.483215 
	C387.026459,149.386902 385.589539,148.316345 385.544281,147.189911 
	C385.318390,141.566406 385.457794,135.928253 385.634521,129.515594 
	C385.745514,127.796745 385.690674,126.857574 385.635803,125.918404 
	C385.367767,125.914841 385.099731,125.911278 384.831696,125.907707 
	C384.560120,126.942039 384.288544,127.976372 384.016968,129.010696 
z"/>
<path fill="#E0E3E6" opacity="1.000000" stroke="none" 
	d="
M298.128906,131.621124 
	C297.626129,132.246964 296.837952,132.937256 296.336182,132.769760 
	C267.128571,123.019722 237.670456,123.302597 207.997269,130.325470 
	C205.823029,130.840057 203.481552,130.647980 201.166153,130.434662 
	C208.523499,128.279053 215.932495,126.473236 223.699249,124.502342 
	C232.099335,123.622581 240.141678,122.907883 248.592102,122.084091 
	C256.711273,122.754120 264.422424,123.533257 272.568573,124.230408 
	C281.328125,126.527382 289.652618,128.906326 298.128906,131.621124 
z"/>
<path fill="#FCFCFA" opacity="1.000000" stroke="none" 
	d="
M169.832748,209.663605 
	C161.195801,216.734680 149.350891,217.405670 142.362534,210.696030 
	C141.526413,209.134735 141.070312,208.075607 140.614212,207.016479 
	C141.495148,206.286255 142.363266,204.940399 143.259033,204.921753 
	C151.543610,204.749313 159.834259,204.737000 168.119110,204.892517 
	C169.044006,204.909882 169.943893,206.258759 170.590210,207.581848 
	C170.160950,208.670242 169.996841,209.166931 169.832748,209.663605 
z"/>
<path fill="#F1EDD5" opacity="1.000000" stroke="none" 
	d="
M267.224396,163.999908 
	C267.224396,157.220016 267.224396,150.440109 267.224396,143.293304 
	C272.165680,143.293304 277.051270,143.293304 281.973389,143.293304 
	C282.785248,147.241943 282.785248,147.241943 272.629150,147.723419 
	C272.425507,147.977570 272.068573,148.221512 272.048889,148.490173 
	C271.978088,149.457016 272.021088,150.432175 272.021088,151.721130 
	C274.242065,151.860886 276.327209,151.992081 278.741333,152.143967 
	C280.191315,159.548538 273.863190,155.838638 271.364868,157.373993 
	C271.761169,161.097580 271.761169,161.097580 282.393127,160.990921 
	C283.478638,163.989914 282.845581,165.509827 279.229980,165.301300 
	C275.754486,165.100830 272.260834,165.215546 268.330200,164.852615 
	C267.739502,164.246368 267.519196,164.075180 267.224396,163.999908 
z"/>
<path fill="#F5EDD0" opacity="1.000000" stroke="none" 
	d="
M255.920868,163.510956 
	C253.842026,161.683777 252.072495,159.842361 250.302963,158.000961 
	C250.580185,157.638184 250.857422,157.275406 251.134644,156.912628 
	C248.393478,156.912628 245.652328,156.912628 242.956604,156.912628 
	C241.524475,164.956146 241.524475,164.956146 238.142319,165.007736 
	C238.142319,157.912476 238.142319,150.812485 238.142319,143.321991 
	C239.343430,143.321991 240.676147,143.321991 242.325287,143.321991 
	C242.325287,146.087997 242.325287,148.706345 242.325287,151.664001 
	C245.490646,151.664001 248.359955,151.664001 251.691620,151.664001 
	C251.691620,148.879059 251.691620,146.135895 251.691620,143.155853 
	C253.398468,143.155853 254.653351,143.155853 256.230194,143.155853 
	C256.230194,149.969116 256.230194,156.732925 255.920868,163.510956 
z"/>
<path fill="#F6CA6B" opacity="1.000000" stroke="none" 
	d="
M217.326477,197.015121 
	C219.400482,197.082947 221.335266,197.627655 223.980896,198.148651 
	C225.126648,198.078583 225.561600,198.032211 225.996536,197.985840 
	C228.249603,196.952438 230.502686,195.919022 233.070541,194.766830 
	C233.511337,200.108582 233.637360,205.569122 233.686600,211.488708 
	C226.156311,214.389572 223.473114,213.557770 217.656342,207.026459 
	C217.289062,203.799149 217.238159,200.645569 217.326477,197.015121 
z"/>
<path fill="#E3BC62" opacity="1.000000" stroke="none" 
	d="
M356.084839,184.162979 
	C354.002838,183.790939 352.389557,183.493332 350.848969,182.978271 
	C349.511810,182.531189 348.256958,181.837921 346.965729,181.253448 
	C348.115234,180.479614 349.252411,179.056427 350.416199,179.034348 
	C359.979431,178.852859 369.547607,178.931824 379.638794,179.397858 
	C382.923492,180.499390 385.683655,181.134827 388.443787,181.770264 
	C387.682526,177.800797 391.857086,173.407974 386.016632,172.202133 
	C387.534363,171.764389 389.052094,171.326645 390.926147,170.808044 
	C391.282471,174.977753 391.282471,179.228302 391.282471,184.142960 
	C379.639740,184.142960 368.112427,184.142960 356.084839,184.162979 
z"/>
<path fill="#F2C970" opacity="1.000000" stroke="none" 
	d="
M244.067596,211.941910 
	C245.836197,212.522797 247.604797,213.103668 249.373398,213.684555 
	C249.643799,212.124207 250.076752,210.571335 250.148819,209.001877 
	C250.276413,206.223190 250.184586,203.434433 250.184586,201.039825 
	C253.236755,199.599319 255.755615,198.410538 258.605591,197.095551 
	C258.959259,202.607193 259.010406,208.245132 258.996490,213.882889 
	C258.982117,219.702896 257.996216,220.853333 252.337158,219.840149 
	C249.410431,219.316162 246.738068,217.371353 243.608505,216.015030 
	C243.210114,215.221329 243.153992,214.481094 243.347900,213.239014 
	C243.799835,212.498871 243.956390,212.233780 244.067596,211.941910 
z"/>
<path fill="#E9EAEB" opacity="1.000000" stroke="none" 
	d="
M268.103088,275.125031 
	C250.588257,278.744293 233.936844,277.835846 217.896088,270.924927 
	C217.942734,270.225922 217.989380,269.526886 218.036026,268.827881 
	C219.604263,268.970367 221.287384,268.791443 222.723129,269.304596 
	C238.765533,275.038452 254.935196,275.144592 271.284882,270.788757 
	C272.441528,270.480591 273.831207,271.047180 275.112549,271.207031 
	C274.199585,272.146484 273.425995,273.326721 272.334808,273.958191 
	C271.224121,274.600952 269.800751,274.703400 268.103088,275.125031 
z"/>
<path fill="#EDC46A" opacity="1.000000" stroke="none" 
	d="
M269.904175,214.205246 
	C276.071899,215.932953 277.592651,215.212952 276.897095,208.923065 
	C276.209351,202.704422 280.237946,201.014481 285.092773,199.038574 
	C285.883087,205.789810 285.914398,212.391998 285.945740,218.994171 
	C280.903900,219.003693 275.862091,219.013229 270.399902,219.011261 
	C269.916138,217.544617 269.852753,216.089462 269.904175,214.205246 
z"/>
<path fill="#0A1D37" opacity="1.000000" stroke="none" 
	d="
M325.022888,292.007629 
	C323.590973,292.309357 322.159058,292.611115 320.727173,292.912872 
	C320.586151,292.495422 320.445099,292.077972 320.304077,291.660553 
	C322.862854,290.403839 325.421631,289.147125 327.980377,287.890442 
	C327.938843,287.585999 327.897278,287.281555 327.855713,286.977142 
	C324.925934,287.172699 321.996155,287.368256 317.517578,287.667175 
	C321.512451,285.284943 324.390564,283.568634 328.113617,281.348480 
	C325.050964,281.125610 322.989807,280.975616 319.808807,280.744110 
	C322.603668,278.887543 324.632019,277.540100 327.752716,275.467072 
	C324.463867,275.467072 322.512482,275.467072 320.561127,275.467072 
	C320.464264,275.152130 320.367401,274.837158 320.270508,274.522217 
	C323.425201,273.030457 326.579865,271.538727 330.166931,269.617126 
	C331.922485,269.483368 333.245636,269.779510 333.773468,269.897644 
	C332.777649,274.135162 330.868774,277.912140 331.378540,281.328186 
	C331.874420,284.650879 334.848450,287.603790 336.705444,290.671326 
	C333.110962,291.082489 329.066925,291.545044 325.022888,292.007629 
z"/>
<path fill="#57B5F3" opacity="1.000000" stroke="none" 
	d="
M380.227844,100.754799 
	C378.108154,97.181084 375.988464,93.607368 374.289673,89.554382 
	C377.844238,89.042709 381.026886,88.643112 384.101624,89.052979 
	C390.873779,89.955750 393.851135,95.762665 392.502228,105.414780 
	C390.266327,105.490242 388.254669,105.327522 386.090302,104.833252 
	C384.297577,102.851593 384.585663,98.263359 380.227844,100.754799 
z"/>
<path fill="#091B33" opacity="1.000000" stroke="none" 
	d="
M169.097015,269.363586 
	C172.815033,271.180054 176.533051,272.996521 180.251068,274.812958 
	C180.236160,275.093811 180.221252,275.374634 180.206345,275.655457 
	C178.209503,275.818878 176.212677,275.982330 173.241699,276.225464 
	C175.677795,277.718597 177.470078,278.817108 180.489899,280.667999 
	C176.791504,280.910339 174.345291,281.070618 170.518372,281.321381 
	C174.247025,283.190918 176.790146,284.466034 179.333267,285.741150 
	C179.302597,286.087921 179.271927,286.434692 179.241272,286.781464 
	C176.589340,286.912354 173.937424,287.043274 170.266556,287.224487 
	C173.318161,288.780396 175.601288,289.944489 177.551727,291.528351 
	C172.183655,291.513275 167.148270,291.078461 162.646713,290.689728 
	C164.640945,287.702759 168.092072,284.683258 168.540344,281.269409 
	C169.006912,277.716309 166.574081,273.782440 165.294525,269.644836 
	C166.279999,269.571930 167.688507,269.467773 169.097015,269.363586 
z"/>
<path fill="#D4A759" opacity="1.000000" stroke="none" 
	d="
M112.016029,219.000610 
	C116.423767,222.189514 116.776245,224.122070 113.577225,229.759705 
	C112.332458,229.625427 111.465355,229.362213 110.598251,229.099014 
	C110.506210,230.311356 109.878815,231.882919 110.411171,232.676285 
	C113.326508,237.020966 116.526390,241.174698 119.316483,245.736969 
	C118.814507,246.323730 118.624565,246.567566 118.434624,246.811401 
	C106.905930,237.492584 104.249512,224.686569 104.759247,210.472290 
	C107.561302,213.578659 109.892868,217.033737 111.916542,220.032593 
	C111.895943,220.246292 111.955986,219.623459 112.016029,219.000610 
z"/>
<path fill="#F2C76E" opacity="1.000000" stroke="none" 
	d="
M183.094025,215.171692 
	C185.695938,215.449173 187.149612,214.827988 186.998001,211.711029 
	C186.823257,208.118225 186.957413,204.510406 186.957413,201.106277 
	C189.723022,200.065598 191.998123,199.209518 194.702148,198.389038 
	C195.260269,198.693756 195.461136,198.889130 195.733734,199.010788 
	C195.750351,204.684067 195.766953,210.357346 195.709625,216.489990 
	C191.329697,217.701584 186.896500,219.600327 183.094025,215.171692 
z"/>
<path fill="#1B4A7F" opacity="1.000000" stroke="none" 
	d="
M169.537048,269.302368 
	C167.688507,269.467773 166.279999,269.571930 165.294525,269.644836 
	C166.574081,273.782440 169.006912,277.716309 168.540344,281.269409 
	C168.092072,284.683258 164.640945,287.702759 162.646713,290.689728 
	C167.148270,291.078461 172.183655,291.513275 177.653763,291.859680 
	C178.889359,291.940948 179.690216,292.110657 180.491074,292.280365 
	C180.490097,292.429047 180.489120,292.577759 180.488129,292.726440 
	C172.256378,292.726440 164.024628,292.726440 155.991928,292.726440 
	C159.162079,288.783905 164.503662,285.017303 165.012817,280.683044 
	C165.503021,276.510010 160.997482,271.750153 158.450485,266.787476 
	C164.355957,267.154907 170.714676,267.550507 177.515198,268.250061 
	C177.956985,268.553986 178.007462,269.021210 178.007462,269.021210 
	C175.330673,269.094513 172.653885,269.167816 169.537048,269.302368 
z"/>
<path fill="#C49D5B" opacity="1.000000" stroke="none" 
	d="
M270.002197,255.393723 
	C270.862640,254.775085 271.794189,254.538055 273.389587,253.922913 
	C282.371582,253.486725 290.700562,253.676010 299.005219,253.311050 
	C310.704803,252.796860 320.020386,247.745453 326.488739,237.762177 
	C327.038818,236.913223 328.174622,236.443802 329.143799,236.118164 
	C329.344238,236.641922 329.439148,236.845566 329.534058,237.049210 
	C324.369080,247.019363 316.128143,253.618317 305.204590,254.864258 
	C293.610352,256.186707 281.793152,255.554138 270.002197,255.393723 
z"/>
<path fill="#1B4E83" opacity="1.000000" stroke="none" 
	d="
M325.290436,292.331238 
	C329.066925,291.545044 333.110962,291.082489 336.705444,290.671326 
	C334.848450,287.603790 331.874420,284.650879 331.378540,281.328186 
	C330.868774,277.912140 332.777649,274.135162 333.773468,269.897644 
	C333.245636,269.779510 331.922485,269.483368 330.250366,269.296265 
	C327.563110,269.289673 325.224731,269.174072 322.483704,268.803467 
	C322.081055,268.548431 322.143280,268.119202 322.143280,268.119202 
	C328.512207,267.643707 334.881104,267.168182 341.207092,266.695862 
	C338.605011,271.759430 334.328308,276.295349 334.685333,280.431274 
	C335.056671,284.733063 339.904694,288.648438 342.740051,292.654877 
	C337.312012,292.654877 331.434998,292.654877 325.290436,292.331238 
z"/>
<path fill="#BF9559" opacity="1.000000" stroke="none" 
	d="
M167.912384,253.835770 
	C168.608185,254.202652 169.304001,254.569534 170.319641,254.939377 
	C168.617355,255.169495 166.586914,255.637360 164.575043,255.567841 
	C161.496948,255.461502 158.223907,254.126556 155.396362,254.811218 
	C142.103149,258.030090 129.981903,256.315704 119.211533,247.249023 
	C119.549507,246.492111 119.788422,246.172836 120.353287,245.979660 
	C134.629684,256.521179 149.351395,255.516953 164.300186,248.753403 
	C165.359680,250.826370 163.289688,254.763977 167.912384,253.835770 
z"/>
<path fill="#091527" opacity="1.000000" stroke="none" 
	d="
M295.990326,101.000000 
	C289.663879,98.278732 283.337402,95.557465 277.010956,92.836197 
	C277.105377,92.442940 277.199829,92.049683 277.294281,91.656425 
	C282.663055,93.012268 288.022888,94.405296 293.405945,95.701958 
	C295.086487,96.106766 296.829712,96.251305 298.791626,96.243088 
	C304.671844,100.411163 310.304626,104.851120 315.968903,109.646004 
	C316.000366,110.000931 315.977081,110.029518 315.977081,110.029526 
	C310.562988,107.358910 305.148865,104.688286 299.355072,102.011620 
	C298.975372,102.005569 299.003204,101.998276 298.794983,101.750305 
	C297.721313,101.334892 296.855804,101.167442 295.990326,101.000000 
z"/>
<path fill="#F1EFE0" opacity="1.000000" stroke="none" 
	d="
M218.987244,165.047592 
	C218.638199,161.770889 218.192123,158.500671 217.972137,155.215317 
	C217.809143,152.781143 217.940079,150.327255 217.940079,147.916214 
	C211.387222,147.465225 211.387222,147.465225 211.687317,143.170807 
	C217.238647,143.170807 222.808151,143.170807 228.369003,143.170807 
	C229.063248,147.090927 229.001678,146.859650 225.556061,147.777008 
	C224.441727,148.073715 223.743576,149.933716 222.390045,151.541260 
	C220.986664,153.210938 219.420486,154.329666 219.235840,155.642685 
	C218.801910,158.728287 219.028152,161.906723 218.987244,165.047592 
z"/>
<path fill="#E8F0F3" opacity="1.000000" stroke="none" 
	d="
M392.726471,105.176605 
	C393.851135,95.762665 390.873779,89.955750 384.101624,89.052979 
	C381.026886,88.643112 377.844238,89.042709 374.253479,89.219276 
	C373.796387,89.363441 373.813385,89.320168 373.830322,88.952293 
	C372.201630,87.442604 370.555969,86.300781 368.910309,85.158966 
	C374.633667,85.487755 380.638947,84.835114 386.013275,86.378967 
	C393.770050,88.607246 396.377777,93.765770 395.706146,102.581390 
	C394.936523,103.837105 394.434753,104.464020 393.629211,105.082191 
	C393.125763,105.107841 392.926117,105.142227 392.726471,105.176605 
z"/>
<path fill="#F6CB77" opacity="1.000000" stroke="none" 
	d="
M355.073914,196.699570 
	C354.477386,196.568466 353.828674,196.214294 353.292175,196.339783 
	C345.543671,198.152328 345.695190,196.923584 346.425262,189.430496 
	C346.574188,187.901840 350.093811,186.437729 352.298340,185.512878 
	C353.096039,185.178223 354.592804,186.509796 355.618652,187.226715 
	C355.518890,190.255295 355.571075,193.138245 355.447906,196.423172 
	C355.272552,196.825150 355.073914,196.699570 355.073914,196.699570 
z"/>
<path fill="#D4DEE5" opacity="1.000000" stroke="none" 
	d="
M383.659302,117.985687 
	C382.011108,126.528717 379.991364,134.906601 377.911011,144.074692 
	C376.896576,148.617767 375.942749,152.370636 374.988953,156.123505 
	C375.186554,152.054306 374.968658,147.911682 375.672150,143.931900 
	C376.957489,136.660858 378.680054,129.459183 380.473541,122.291954 
	C380.879791,120.668396 382.322296,119.304146 383.659302,117.985687 
z"/>
<path fill="#C39551" opacity="1.000000" stroke="none" 
	d="
M389.104187,253.590500 
	C389.686798,253.692551 390.269409,253.794601 391.294617,253.929840 
	C390.482513,254.696518 389.234039,256.055084 387.972198,256.067688 
	C373.951996,256.207550 359.929779,256.139069 345.448242,256.023254 
	C344.999023,255.457611 345.009583,254.995529 345.484131,254.096024 
	C360.333466,253.635880 374.718842,253.613190 389.104187,253.590500 
z"/>
<path fill="#D4DEE5" opacity="1.000000" stroke="none" 
	d="
M396.726105,135.226913 
	C395.157135,129.805801 393.588135,124.384682 391.983276,118.590065 
	C392.932861,118.844833 394.528870,119.272369 394.811371,120.131721 
	C398.524963,131.428314 402.036255,142.788803 400.619751,155.240936 
	C399.596283,151.959351 398.964417,148.374298 398.382874,144.375793 
	C397.864166,141.050537 397.295135,138.138718 396.726105,135.226913 
z"/>
<path fill="#E6BA6E" opacity="1.000000" stroke="none" 
	d="
M112.009415,218.584839 
	C111.955986,219.623459 111.895943,220.246292 111.916542,220.032593 
	C109.892868,217.033737 107.561302,213.578659 104.910789,210.043930 
	C105.068405,206.103561 105.544975,202.242813 106.230392,198.065216 
	C107.758667,200.050186 109.078087,202.351990 110.691620,204.894073 
	C111.197708,207.953293 108.458900,210.953644 111.760803,213.807007 
	C112.011353,215.400131 112.007080,216.784607 112.009415,218.584839 
z"/>
<path fill="#1A2A40" opacity="1.000000" stroke="none" 
	d="
M136.575562,91.931122 
	C136.973053,92.358894 136.986389,92.828400 137.001587,93.650230 
	C131.746597,96.870888 126.580315,99.934929 121.157272,102.444031 
	C120.059784,102.951805 117.991722,101.361816 114.978127,100.203545 
	C118.178940,98.486649 120.204102,97.400360 122.542694,96.183517 
	C127.301216,94.692924 131.746307,93.332886 136.575562,91.931122 
z"/>
<path fill="#091B33" opacity="1.000000" stroke="none" 
	d="
M273.232727,82.721100 
	C268.154144,81.844910 263.331329,80.688087 258.247528,79.249069 
	C261.809937,79.082024 265.712158,78.749947 269.440094,79.406929 
	C276.829498,80.709160 284.122742,82.557266 291.455719,84.179741 
	C291.323212,84.783928 291.190735,85.388107 291.058228,85.992287 
	C288.680450,85.477913 286.308502,84.934341 283.923492,84.456070 
	C280.450134,83.759560 276.967316,83.110039 273.232727,82.721100 
z"/>
<path fill="#1C3D65" opacity="1.000000" stroke="none" 
	d="
M176.794525,100.751740 
	C178.776016,98.865364 180.464951,96.418152 182.796112,95.202133 
	C188.796066,92.072334 195.080475,89.487846 201.625473,86.956955 
	C201.992981,87.471634 201.986237,87.714813 201.979507,87.958008 
	C193.910233,92.296104 185.840942,96.634209 177.356003,100.952438 
	C176.940353,100.932579 176.794525,100.751732 176.794525,100.751740 
z"/>
<path fill="#130F0F" opacity="1.000000" stroke="none" 
	d="
M392.502228,105.414780 
	C392.926117,105.142227 393.125763,105.107841 393.654602,105.459579 
	C392.303223,108.022606 390.622711,110.199501 388.510284,112.323074 
	C386.534485,112.525124 384.990631,112.780502 383.446747,113.035873 
	C383.166626,112.820198 382.886505,112.604523 382.901428,111.925140 
	C382.867584,110.390800 382.538666,109.320152 382.511871,109.232857 
	C384.045593,107.560631 385.144318,106.362717 386.243011,105.164795 
	C388.254669,105.327522 390.266327,105.490242 392.502228,105.414780 
z"/>
<path fill="#F8F8F6" opacity="1.000000" stroke="none" 
	d="
M307.672241,157.135712 
	C302.157196,157.135681 297.106201,157.135681 291.589050,157.135681 
	C293.575317,153.352478 306.518585,152.608337 312.879211,155.602707 
	C310.740601,156.293945 309.438416,156.714844 307.672241,157.135712 
z"/>
<path fill="#F8F8F6" opacity="1.000000" stroke="none" 
	d="
M203.847916,155.018890 
	C202.926392,155.998611 201.888214,156.962051 200.807388,157.012558 
	C196.660751,157.206360 192.498001,157.188324 188.346695,157.065918 
	C187.166656,157.031128 186.004974,156.374390 184.834869,156.002869 
	C184.933075,155.225052 185.031296,154.447250 185.129501,153.669434 
	C191.323563,153.974060 197.517624,154.278687 203.847916,155.018890 
z"/>
<path fill="#CFCAB9" opacity="1.000000" stroke="none" 
	d="
M219.300507,165.188950 
	C219.028152,161.906723 218.801910,158.728287 219.235840,155.642685 
	C219.420486,154.329666 220.986664,153.210938 222.318390,151.973404 
	C222.790436,155.513168 223.110550,159.105194 222.791977,162.639664 
	C222.703262,163.624023 220.725098,164.438110 219.300507,165.188950 
z"/>
<path fill="#1C3D65" opacity="1.000000" stroke="none" 
	d="
M375.027588,156.465881 
	C375.942749,152.370636 376.896576,148.617767 377.946411,144.486526 
	C378.997101,142.679367 379.951782,141.250595 381.215149,139.710541 
	C381.120850,146.927841 379.604370,153.896591 374.606506,159.812027 
	C374.759735,158.810776 374.912994,157.809525 375.027588,156.465881 
z"/>
<path fill="#1C3D65" opacity="1.000000" stroke="none" 
	d="
M300.105682,88.030701 
	C306.360687,91.132683 312.255951,94.201660 318.151215,97.270645 
	C317.821899,97.878960 317.492554,98.487282 317.163239,99.095604 
	C310.655823,95.593468 304.148376,92.091331 296.886322,88.183060 
	C298.444061,88.082085 299.095001,88.039894 300.105682,88.030701 
z"/>
<path fill="#2A2119" opacity="1.000000" stroke="none" 
	d="
M160.018402,190.555878 
	C161.054688,188.602631 162.148285,186.988281 163.404861,185.115631 
	C165.100494,184.278030 166.633148,183.698776 168.512390,183.475922 
	C167.545609,185.448685 166.130295,186.998825 165.002319,188.735596 
	C164.768646,189.095352 165.602463,190.148422 165.944290,190.881958 
	C164.023300,195.034012 163.337036,195.035507 160.018402,190.555878 
z"/>
<path fill="#E6BA6E" opacity="1.000000" stroke="none" 
	d="
M386.090302,104.833252 
	C385.144318,106.362717 384.045593,107.560631 382.511871,109.232857 
	C382.538666,109.320152 382.867584,110.390800 382.837097,111.757477 
	C377.549103,109.521965 379.878204,105.271225 380.108276,101.150421 
	C384.585663,98.263359 384.297577,102.851593 386.090302,104.833252 
z"/>
<path fill="#1A2A40" opacity="1.000000" stroke="none" 
	d="
M398.332581,144.789246 
	C398.964417,148.374298 399.596283,151.959351 400.575806,155.697006 
	C401.073395,157.100037 401.223328,158.350449 401.467834,160.389633 
	C395.589722,156.438904 396.622345,150.442917 395.689178,145.146881 
	C396.875183,144.810623 397.603851,144.799927 398.332581,144.789246 
z"/>
<path fill="#F6CB77" opacity="1.000000" stroke="none" 
	d="
M323.887878,203.179153 
	C325.375824,207.509079 326.914856,207.955673 331.837097,205.194595 
	C332.488983,205.755417 332.834900,206.518707 333.159668,207.626465 
	C330.095642,209.328506 327.052795,210.686050 323.665039,212.075409 
	C323.141754,209.627335 322.963409,207.147491 322.907349,204.154419 
	C323.259003,203.381744 323.545105,203.227737 323.887878,203.179153 
z"/>
<path fill="#F6D18E" opacity="1.000000" stroke="none" 
	d="
M195.387955,197.012146 
	C192.927002,197.140060 190.466049,197.267960 187.272690,197.433945 
	C187.148926,195.434601 187.014450,193.262222 186.874557,191.002396 
	C189.764557,192.080887 192.364395,193.051086 195.329865,194.091873 
	C195.781128,194.905563 195.866730,195.648682 195.778656,196.720795 
	C195.604965,197.049805 195.387955,197.012146 195.387955,197.012146 
z"/>
<path fill="#C49D5B" opacity="1.000000" stroke="none" 
	d="
M388.942200,112.376404 
	C390.622711,110.199501 392.303223,108.022606 393.958374,105.468323 
	C394.434753,104.464020 394.936523,103.837105 395.664795,103.004532 
	C397.153320,109.188835 395.762848,111.827766 389.420105,113.964371 
	C388.989014,113.206947 388.965607,112.791672 388.942200,112.376404 
z"/>
<path fill="#DCB46D" opacity="1.000000" stroke="none" 
	d="
M166.096741,190.583588 
	C165.602463,190.148422 164.768646,189.095352 165.002319,188.735596 
	C166.130295,186.998825 167.545609,185.448685 168.865753,183.494507 
	C170.158096,182.219452 171.443680,181.282242 172.980072,180.098892 
	C173.179626,181.086487 173.615341,182.725998 172.987595,183.479279 
	C170.951279,185.922791 168.525177,188.041458 166.096741,190.583588 
z"/>
<path fill="#306297" opacity="1.000000" stroke="none" 
	d="
M398.382874,144.375793 
	C397.603851,144.799927 396.875183,144.810623 395.794098,144.740997 
	C394.971283,141.701660 394.500885,138.742645 394.102295,135.364288 
	C394.897247,135.114609 395.620361,135.284241 396.534790,135.340393 
	C397.295135,138.138718 397.864166,141.050537 398.382874,144.375793 
z"/>
<path fill="#1A2A40" opacity="1.000000" stroke="none" 
	d="
M202.353317,87.931534 
	C201.986237,87.714813 201.992981,87.471634 202.017242,86.858398 
	C206.594620,84.829681 211.154480,83.171021 215.714340,81.512360 
	C215.879532,81.966606 216.044724,82.420845 216.209915,82.875092 
	C211.715652,84.551750 207.221390,86.228401 202.353317,87.931534 
z"/>
<path fill="#130F0F" opacity="1.000000" stroke="none" 
	d="
M338.310699,157.300735 
	C346.358368,157.010437 354.707031,157.006500 363.523193,157.008575 
	C359.634155,157.341232 355.281769,157.840347 350.919922,157.944458 
	C346.822357,158.042282 342.714844,157.722885 338.310699,157.300735 
z"/>
<path fill="#BF9559" opacity="1.000000" stroke="none" 
	d="
M169.895050,210.157211 
	C169.996841,209.166931 170.160950,208.670242 170.542542,208.018799 
	C170.830841,215.933289 170.901642,224.002548 170.884766,232.532776 
	C170.517166,225.546112 170.237244,218.098465 169.895050,210.157211 
z"/>
<path fill="#1A1511" opacity="1.000000" stroke="none" 
	d="
M329.839111,236.929733 
	C329.439148,236.845566 329.344238,236.641922 329.077026,235.806808 
	C329.151642,233.502228 329.398560,231.829117 329.645508,230.155975 
	C330.448273,230.063797 331.251068,229.971619 332.421631,229.704361 
	C331.907715,231.956268 331.025940,234.383270 329.839111,236.929733 
z"/>
<path fill="#57B5F3" opacity="1.000000" stroke="none" 
	d="
M368.567627,85.080887 
	C370.555969,86.300781 372.201630,87.442604 373.830322,88.929131 
	C371.048340,88.048355 368.283295,86.822868 364.834564,85.294350 
	C366.450836,85.155365 367.337921,85.079079 368.567627,85.080887 
z"/>
<path fill="#D4A759" opacity="1.000000" stroke="none" 
	d="
M140.402557,215.359573 
	C141.345444,216.319214 142.179672,217.661102 143.015533,219.342697 
	C139.156494,220.409607 140.518570,217.527420 140.402557,215.359573 
z"/>
<path fill="#E6BA6E" opacity="1.000000" stroke="none" 
	d="
M388.510284,112.323074 
	C388.965607,112.791672 388.989014,113.206947 389.047668,113.932938 
	C387.410736,114.037186 385.738556,113.830719 383.756531,113.330063 
	C384.990631,112.780502 386.534485,112.525124 388.510284,112.323074 
z"/>
<path fill="#D4A759" opacity="1.000000" stroke="none" 
	d="
M140.461685,207.409195 
	C141.070312,208.075607 141.526413,209.134735 142.082550,210.475769 
	C141.807434,211.143768 141.432297,211.529846 140.784286,211.970978 
	C140.443985,210.617981 140.376572,209.209946 140.461685,207.409195 
z"/>
<path fill="#306297" opacity="1.000000" stroke="none" 
	d="
M384.281067,128.984497 
	C384.288544,127.976372 384.560120,126.942039 384.831696,125.907707 
	C385.099731,125.911278 385.367767,125.914841 385.635803,125.918404 
	C385.690674,126.857574 385.745514,127.796745 385.651489,129.074799 
	C385.183502,129.261887 384.864319,129.110092 384.281067,128.984497 
z"/>
<path fill="#F2C76E" opacity="1.000000" stroke="none" 
	d="
M179.619324,212.121918 
	C180.447891,212.358353 181.126556,212.938141 181.911194,213.770203 
	C181.427795,213.997955 180.838379,213.973465 179.954376,213.940872 
	C179.596313,213.443604 179.532852,212.954453 179.619324,212.121918 
z"/>
<path fill="#0A1D37" opacity="1.000000" stroke="none" 
	d="
M321.826050,268.100037 
	C322.143280,268.119202 322.081055,268.548431 322.045227,268.762115 
	C321.390778,269.326965 320.772125,269.678101 320.153473,270.029236 
	C319.987854,269.804169 319.822266,269.579071 319.656647,269.354004 
	C320.274048,268.929596 320.891449,268.505219 321.826050,268.100037 
z"/>
<path fill="#0F2036" opacity="1.000000" stroke="none" 
	d="
M322.997498,129.003265 
	C322.391388,128.307922 321.785248,127.612587 321.179138,126.917244 
	C321.473633,126.731247 321.768158,126.545250 322.062653,126.359261 
	C322.379272,127.020576 322.695862,127.681885 323.006226,128.671600 
	C323.000000,129.000000 322.997498,129.003265 322.997498,129.003265 
z"/>
<path fill="#0F2036" opacity="1.000000" stroke="none" 
	d="
M173.989532,128.991760 
	C174.228073,128.108719 174.466599,127.225662 174.705139,126.342613 
	C175.016830,126.460945 175.328522,126.579277 175.640213,126.697609 
	C175.283478,127.376282 174.926727,128.054962 174.284912,128.866760 
	C173.999832,128.999893 173.989517,128.991760 173.989532,128.991760 
z"/>
<path fill="#091B33" opacity="1.000000" stroke="none" 
	d="
M178.172363,269.236023 
	C178.007462,269.021210 177.956985,268.553986 177.920105,268.322388 
	C178.435959,268.464355 178.988663,268.837952 179.541382,269.211548 
	C179.139999,269.291321 178.738617,269.371094 178.172363,269.236023 
z"/>
<path fill="#1C3D65" opacity="1.000000" stroke="none" 
	d="
M177.014008,101.022415 
	C176.369614,101.383484 175.651581,101.654732 174.933533,101.925972 
	C174.863129,101.722748 174.792725,101.519531 174.722305,101.316307 
	C175.225372,101.152069 175.728439,100.987831 176.513016,100.787659 
	C176.794525,100.751732 176.940353,100.932579 177.014008,101.022415 
z"/>
<path fill="#D5A959" opacity="1.000000" stroke="none" 
	d="
M354.980164,197.068665 
	C355.073914,196.699570 355.272552,196.825150 355.363708,196.899597 
	C355.536438,197.441101 355.618073,197.908142 355.571960,198.712799 
	C355.444214,199.050400 355.049316,199.033417 354.857178,198.985397 
	C354.738831,198.437500 354.812622,197.937637 354.980164,197.068665 
z"/>
<path fill="#D4A759" opacity="1.000000" stroke="none" 
	d="
M142.268097,239.622421 
	C141.862381,239.779648 141.199982,239.717361 140.288116,239.430786 
	C140.696243,239.271988 141.353836,239.337448 142.268097,239.622421 
z"/>
<path fill="#D2A95F" opacity="1.000000" stroke="none" 
	d="
M195.259491,197.262207 
	C195.387955,197.012146 195.604965,197.049805 195.706116,197.094849 
	C195.848633,197.559708 195.889984,197.979507 195.832535,198.705048 
	C195.461136,198.889130 195.260269,198.693756 195.036743,198.233276 
	C195.005295,197.865341 195.068176,197.688797 195.259491,197.262207 
z"/>
<path fill="#0F2036" opacity="1.000000" stroke="none" 
	d="
M324.010132,139.993362 
	C324.140839,140.422913 324.258087,140.862640 324.375305,141.302383 
	C324.247162,141.035400 324.118988,140.768433 323.981445,140.264526 
	C323.972046,140.027603 323.996643,140.003555 324.010132,139.993362 
z"/>
<path fill="#D9AA5B" opacity="1.000000" stroke="none" 
	d="
M243.988098,211.733383 
	C243.956390,212.233780 243.799835,212.498871 243.409180,212.871338 
	C243.158554,212.560242 243.096649,212.115005 243.123871,211.342804 
	C243.532196,211.066101 243.764069,211.235764 243.988098,211.733383 
z"/>
<path fill="#091527" opacity="1.000000" stroke="none" 
	d="
M316.014526,109.989182 
	C316.345551,110.087563 316.604309,110.276985 316.902649,110.773209 
	C317.000275,111.000740 316.979370,111.026588 316.979370,111.026588 
	C316.658417,110.923004 316.398529,110.734993 316.088379,110.246033 
	C315.977081,110.029518 316.000366,110.000931 316.014526,109.989182 
z"/>
<path fill="#0F2036" opacity="1.000000" stroke="none" 
	d="
M174.003723,129.004822 
	C173.905975,129.038284 173.804337,129.066818 173.846100,129.043549 
	C173.989517,128.991760 173.999832,128.999893 174.003723,129.004822 
z"/>
<path fill="#0F2036" opacity="1.000000" stroke="none" 
	d="
M179.455902,111.535370 
	C179.422867,111.479599 179.488922,111.591141 179.455902,111.535370 
z"/>
<path fill="#091527" opacity="1.000000" stroke="none" 
	d="
M317.013123,110.990265 
	C317.342896,111.090973 317.598145,111.283775 317.895874,111.779144 
	C318.000000,112.000076 317.993805,112.007950 317.993805,112.007950 
	C317.669373,111.912918 317.406158,111.729866 317.091766,111.242691 
	C316.979370,111.026588 317.000275,111.000740 317.013123,110.990265 
z"/>
<path fill="#C39551" opacity="1.000000" stroke="none" 
	d="
M338.912689,255.305161 
	C339.233337,255.073242 339.513367,255.236053 339.867737,255.703003 
	C339.640350,255.810242 339.283661,255.707825 338.912689,255.305161 
z"/>
<path fill="#091527" opacity="1.000000" stroke="none" 
	d="
M318.003662,111.997139 
	C318.122620,112.138084 318.237946,112.281967 318.353241,112.425850 
	C318.268097,112.377556 318.182953,112.329262 318.045807,112.144455 
	C317.993805,112.007950 318.000000,112.000076 318.003662,111.997139 
z"/>
<path fill="#D4A759" opacity="1.000000" stroke="none" 
	d="
M120.027328,245.853561 
	C119.788422,246.172836 119.549507,246.492111 119.041199,246.951447 
	C118.771790,247.091492 118.557854,247.004730 118.496239,246.908066 
	C118.624565,246.567566 118.814507,246.323730 119.451614,245.821075 
	C119.898788,245.562271 120.027321,245.853561 120.027328,245.853561 
z"/>
<path fill="#C39551" opacity="1.000000" stroke="none" 
	d="
M391.814209,240.743561 
	C391.512177,240.896179 391.313232,240.732040 391.086914,240.322662 
	C391.289886,240.261246 391.575775,240.377686 391.814209,240.743561 
z"/>
<path fill="#D4A759" opacity="1.000000" stroke="none" 
	d="
M149.739075,239.134705 
	C149.842209,239.532928 149.597809,239.658173 149.146118,239.428253 
	C149.039185,239.309647 149.491928,239.098267 149.739075,239.134705 
z"/>
<path fill="#D4A759" opacity="1.000000" stroke="none" 
	d="
M146.653595,239.595306 
	C146.634018,239.840164 146.413361,239.923416 145.990479,239.936737 
	C145.957840,239.668625 146.179260,239.524261 146.653595,239.595306 
z"/>
<path fill="#0F2036" opacity="1.000000" stroke="none" 
	d="
M323.001831,128.998611 
	C323.124115,129.140564 323.244568,129.283920 323.365021,129.427261 
	C323.277435,129.379044 323.189819,129.330826 323.049866,129.142944 
	C322.997498,129.003265 323.000000,129.000000 323.001831,128.998611 
z"/>
<path fill="#DED8C3" opacity="1.000000" stroke="none" 
	d="
M267.157288,164.277206 
	C267.519196,164.075180 267.739502,164.246368 267.954590,164.716217 
	C267.712677,164.797485 267.401428,164.675995 267.157288,164.277206 
z"/>
<path fill="#1E1814" opacity="1.000000" stroke="none" 
	d="
M382.904907,204.529236 
	C382.748383,204.646713 382.448395,204.534409 381.966553,204.251175 
	C382.101593,204.176453 382.427185,204.249527 382.904907,204.529236 
z"/>
<path fill="#D5A959" opacity="1.000000" stroke="none" 
	d="
M339.826874,196.927307 
	C339.892670,197.346451 339.732880,197.584991 339.331360,197.892990 
	C339.083008,197.777863 339.024780,197.558670 339.086426,197.019073 
	C339.206329,196.698669 339.652954,196.781296 339.826874,196.927307 
z"/>
<path fill="#03030B" opacity="1.000000" stroke="none" 
	d="
M296.203796,101.257645 
	C296.855804,101.167442 297.721313,101.334892 298.797668,101.763069 
	C298.144775,101.854294 297.281036,101.684792 296.203796,101.257645 
z"/>
<path fill="#130F0F" opacity="1.000000" stroke="none" 
	d="
M187.810913,242.028900 
	C192.946075,249.185074 200.261093,251.433685 208.596176,250.894196 
	C216.805557,250.362854 223.101166,246.555557 226.885986,239.047928 
	C227.257492,238.311020 227.312469,237.340057 227.834274,236.771149 
	C228.585312,235.952301 229.629822,235.402695 230.549103,234.738190 
	C230.712891,235.893753 231.303711,237.192139 230.972595,238.182144 
	C228.432373,245.776566 223.269897,250.840439 215.612854,253.226761 
	C203.074310,257.134430 190.039948,252.716827 184.514191,242.324188 
	C185.807373,241.996490 186.809143,242.012695 187.810913,242.028900 
z"/>
<path fill="#2A2119" opacity="1.000000" stroke="none" 
	d="
M187.768585,241.707703 
	C186.809143,242.012695 185.807373,241.996490 184.429993,241.993652 
	C182.553741,239.500656 180.974091,237.000824 183.565155,233.516968 
	C185.105713,236.430511 186.415985,238.908508 187.768585,241.707703 
z"/>
<path fill="#07060B" opacity="1.000000" stroke="none" 
	d="
M286.044647,219.454147 
	C285.914398,212.391998 285.883087,205.789810 285.451721,198.950912 
	C285.068481,198.332001 285.085358,197.949799 285.561859,197.105743 
	C285.998322,194.761475 285.975128,192.879074 285.951935,190.996674 
	C286.003967,190.833282 286.056030,190.669876 286.282990,189.909058 
	C301.229553,187.286255 311.459686,193.153229 315.463379,206.243729 
	C316.415771,209.357590 316.509399,212.734116 316.998047,215.989838 
	C316.525085,218.095642 316.180206,220.240082 315.558441,222.300980 
	C311.548645,235.592117 302.575775,241.027557 286.143555,239.597168 
	C286.143555,233.102142 286.143555,226.508133 286.044647,219.454147 
M302.573883,218.173035 
	C301.835205,217.439682 301.096527,216.706345 300.357849,215.972992 
	C299.886078,216.748520 299.044617,217.506607 299.006989,218.302643 
	C298.850250,221.621323 298.811035,224.959244 299.019226,228.271851 
	C299.071167,229.098526 300.206726,229.857101 300.844238,230.646942 
	C301.437561,229.774429 302.475098,228.934814 302.542633,228.023346 
	C302.763245,225.046280 302.630219,222.042984 302.573883,218.173035 
M297.570801,199.788223 
	C296.938446,200.504883 295.623444,201.583496 295.781250,201.881165 
	C297.094177,204.357224 298.678772,206.689224 300.905518,210.209763 
	C303.025208,205.083313 301.361816,202.334366 297.570801,199.788223 
z"/>
<path fill="#EEC56D" opacity="1.000000" stroke="none" 
	d="
M317.392914,215.992889 
	C316.509399,212.734116 316.415771,209.357590 315.463379,206.243729 
	C311.459686,193.153229 301.229553,187.286255 286.209229,189.662628 
	C284.637726,190.015076 283.295502,189.871170 281.995667,190.044724 
	C277.691467,190.619370 277.197693,190.126587 277.889801,184.009232 
	C286.780548,184.970673 296.073578,184.713409 304.553284,187.214142 
	C315.004456,190.296265 319.579590,199.375565 321.043243,209.901077 
	C321.245850,211.358078 321.558594,212.799789 321.641724,214.765076 
	C321.226593,215.492477 321.054260,215.746887 320.946106,216.044800 
	C319.893341,216.028519 318.840546,216.012238 317.392914,215.992889 
z"/>
<path fill="#03030B" opacity="1.000000" stroke="none" 
	d="
M329.687317,229.820984 
	C329.398560,231.829117 329.151642,233.502228 328.971497,235.486710 
	C328.174622,236.443802 327.038818,236.913223 326.488739,237.762177 
	C320.020386,247.745453 310.704803,252.796860 299.005219,253.311050 
	C290.700562,253.676010 282.371582,253.486725 273.599426,253.618958 
	C273.145447,253.693069 273.063141,253.403458 272.946259,253.035400 
	C272.679840,252.378525 272.462708,252.155472 272.178040,251.998199 
	C272.138000,250.935974 272.097961,249.873749 272.496155,248.417007 
	C273.630707,248.013199 274.327057,248.003922 275.023407,247.994629 
	C275.533142,248.610092 276.060852,249.775879 276.549957,249.759903 
	C286.597931,249.431564 296.814301,249.958923 306.635895,248.245453 
	C315.902313,246.628830 321.921021,239.518738 325.971497,231.052399 
	C326.707947,229.513046 326.935333,226.284393 329.687317,229.820984 
z"/>
<path fill="#F6CB77" opacity="1.000000" stroke="none" 
	d="
M321.000366,216.364441 
	C321.054260,215.746887 321.226593,215.492477 321.664856,215.170471 
	C322.073364,215.067261 322.280090,215.075165 322.795471,215.119949 
	C323.130127,215.989761 323.156128,216.822708 323.182129,217.655640 
	C322.472992,217.331787 321.763824,217.007950 321.000366,216.364441 
z"/>
<path fill="#1A1511" opacity="1.000000" stroke="none" 
	d="
M274.933411,247.670349 
	C274.327057,248.003922 273.630707,248.013199 272.586334,248.027740 
	C273.106689,247.804031 273.975067,247.575058 274.933411,247.670349 
z"/>
<path fill="#1A1511" opacity="1.000000" stroke="none" 
	d="
M272.139740,252.279770 
	C272.462708,252.155472 272.679840,252.378525 272.890991,252.895370 
	C272.668884,252.936035 272.385162,252.748688 272.139740,252.279770 
z"/>
<path fill="#130F0F" opacity="1.000000" stroke="none" 
	d="
M120.353287,245.979660 
	C120.027321,245.853561 119.898788,245.562271 119.763649,245.478149 
	C116.526390,241.174698 113.326508,237.020966 110.411171,232.676285 
	C109.878815,231.882919 110.506210,230.311356 110.598251,229.099014 
	C111.465355,229.362213 112.332458,229.625427 113.491257,230.146729 
	C117.400574,240.543457 125.008011,246.170776 135.681274,249.350220 
	C138.592804,249.684341 140.789581,249.807907 142.986374,249.931458 
	C143.438248,249.984528 143.890121,250.037598 144.923401,250.067566 
	C145.665527,249.985153 145.826233,249.925858 145.986938,249.866547 
	C146.447006,249.907318 146.907089,249.948074 148.063446,249.965332 
	C149.683609,249.678177 150.607468,249.414520 151.531342,249.150879 
	C156.888336,247.226654 162.245346,245.302414 168.104675,243.197739 
	C168.104675,246.464340 168.104675,249.709595 168.008530,253.395294 
	C163.289688,254.763977 165.359680,250.826370 164.300186,248.753403 
	C149.351395,255.516953 134.629684,256.521179 120.353287,245.979660 
z"/>
<path fill="#D4A759" opacity="1.000000" stroke="none" 
	d="
M142.692169,249.660919 
	C140.789581,249.807907 138.592804,249.684341 136.051697,249.334137 
	C137.937576,249.201813 140.167786,249.296112 142.692169,249.660919 
z"/>
<path fill="#D4A759" opacity="1.000000" stroke="none" 
	d="
M151.155396,249.109589 
	C150.607468,249.414520 149.683609,249.678177 148.399261,249.873047 
	C148.952332,249.558929 149.865891,249.313614 151.155396,249.109589 
z"/>
<path fill="#D4A759" opacity="1.000000" stroke="none" 
	d="
M145.889709,249.723206 
	C145.826233,249.925858 145.665527,249.985153 145.255936,249.980591 
	C145.268875,249.804413 145.530685,249.692139 145.889709,249.723206 
z"/>
<path fill="#1E1814" opacity="1.000000" stroke="none" 
	d="
M389.257233,253.204926 
	C374.718842,253.613190 360.333466,253.635880 345.488708,253.749405 
	C343.746582,253.675659 342.463837,253.511093 341.190308,253.347702 
	C341.190308,251.067490 341.190308,248.998001 341.190308,246.062820 
	C348.027405,252.597488 355.786804,249.242035 362.951324,249.754547 
	C370.371460,250.285324 377.859100,249.872681 385.119232,249.872681 
	C385.494659,249.266861 385.705322,249.016830 385.819214,248.728592 
	C386.564178,246.843750 387.288177,244.950638 388.019104,243.060242 
	C388.525055,244.986633 389.166351,246.890717 389.489014,248.847336 
	C389.700836,250.132080 389.452515,251.492691 389.257233,253.204926 
z"/>
<path fill="#1E1814" opacity="1.000000" stroke="none" 
	d="
M372.464874,213.908249 
	C374.105499,213.405014 375.510864,213.227966 375.971375,213.169952 
	C377.485321,210.656448 378.606232,208.795517 379.933472,206.649475 
	C380.495758,209.714325 380.851654,213.064285 381.297302,217.258575 
	C377.745880,215.848907 373.689972,219.890335 372.464874,213.908249 
z"/>
<path fill="#E6BA6E" opacity="1.000000" stroke="none" 
	d="
M343.989594,226.767853 
	C343.989746,223.441528 343.989746,220.568146 343.989746,217.694778 
	C344.469147,217.694611 344.948517,217.694443 345.427917,217.694260 
	C345.427917,222.209747 345.427917,226.725250 345.427917,231.240738 
	C345.116455,231.305817 344.805023,231.370911 344.493561,231.436005 
	C344.325531,230.030945 344.157471,228.625870 343.989594,226.767853 
z"/>
<path fill="#F2C970" opacity="1.000000" stroke="none" 
	d="
M285.576233,191.031006 
	C285.975128,192.879074 285.998322,194.761475 285.669678,196.837921 
	C282.841919,197.640717 280.365997,198.249481 277.703125,198.904205 
	C276.673431,195.918259 276.449799,193.700928 280.226807,192.935745 
	C281.940674,192.588516 283.545959,191.705383 285.576233,191.031006 
z"/>
<path fill="#F5EDD0" opacity="1.000000" stroke="none" 
	d="
M323.894867,202.806122 
	C323.545105,203.227737 323.259003,203.381744 322.842621,203.809113 
	C321.434845,200.903915 320.214020,197.830826 318.996613,194.378860 
	C319.000000,194.000000 319.002960,193.996078 319.002960,193.996078 
	C320.635925,196.808411 322.268890,199.620758 323.894867,202.806122 
z"/>
<path fill="#F5EDD0" opacity="1.000000" stroke="none" 
	d="
M318.998169,194.001648 
	C318.875488,193.862762 318.754669,193.722229 318.633850,193.581696 
	C318.720642,193.628601 318.807404,193.675507 318.948578,193.859253 
	C319.002960,193.996078 319.000000,194.000000 318.998169,194.001648 
z"/>
<path fill="#1E1814" opacity="1.000000" stroke="none" 
	d="
M385.899353,172.589417 
	C391.857086,173.407974 387.682526,177.800797 388.443787,181.770264 
	C385.683655,181.134827 382.923492,180.499390 380.108887,179.446350 
	C381.755219,178.583725 383.455994,178.138718 385.397217,177.630798 
	C385.518555,176.163589 385.650299,174.570145 385.899353,172.589417 
z"/>
<path fill="#2A2119" opacity="1.000000" stroke="none" 
	d="
M252.625763,249.846893 
	C254.248779,248.830734 255.497055,247.848892 256.745331,246.867050 
	C257.185852,248.819733 257.626373,250.772415 258.192749,253.282928 
	C253.615128,253.282928 249.783356,253.282928 245.620804,253.282928 
	C245.477509,252.060654 245.091263,250.766190 245.257111,249.546799 
	C245.389587,248.572495 246.194061,247.689590 246.700287,246.766129 
	C247.493210,247.351822 248.236420,248.027557 249.091980,248.499741 
	C250.093933,249.052780 251.193695,249.428558 252.625763,249.846893 
z"/>
<path fill="#F6D18E" opacity="1.000000" stroke="none" 
	d="
M250.153717,190.777100 
	C252.701111,191.425110 255.215790,192.436035 257.730438,193.446960 
	C257.834351,193.882828 257.938232,194.318680 258.042114,194.754532 
	C255.986771,195.411453 253.931427,196.068375 251.876083,196.725296 
	C251.291046,194.863525 250.706024,193.001770 250.153717,190.777100 
z"/>
<path fill="#F1EFE0" opacity="1.000000" stroke="none" 
	d="
M225.995331,197.530762 
	C225.561600,198.032211 225.126648,198.078583 224.364227,198.103210 
	C224.036743,193.114029 224.036743,188.146606 224.036743,183.179169 
	C224.355759,183.160995 224.674774,183.142807 224.993790,183.124634 
	C225.327240,187.774994 225.660690,192.425339 225.995331,197.530762 
z"/>
<path fill="#D4DEE5" opacity="1.000000" stroke="none" 
	d="
M302.603577,218.611420 
	C302.630219,222.042984 302.763245,225.046280 302.542633,228.023346 
	C302.475098,228.934814 301.437561,229.774429 300.844238,230.646942 
	C300.206726,229.857101 299.071167,229.098526 299.019226,228.271851 
	C298.811035,224.959244 298.850250,221.621323 299.006989,218.302643 
	C299.044617,217.506607 299.886078,216.748520 300.357849,215.972992 
	C301.096527,216.706345 301.835205,217.439682 302.603577,218.611420 
z"/>
<path fill="#D4DEE5" opacity="1.000000" stroke="none" 
	d="
M297.879089,199.875671 
	C301.361816,202.334366 303.025208,205.083313 300.905518,210.209763 
	C298.678772,206.689224 297.094177,204.357224 295.781250,201.881165 
	C295.623444,201.583496 296.938446,200.504883 297.879089,199.875671 
z"/>
</svg>